<svg width="135" height="41" viewBox="0 0 135 41" fill="none" xmlns="http://www.w3.org/2000/svg">
<path d="M68.136 22.4546C65.784 22.4546 63.867 24.2436 63.867 26.7076C63.867 29.1566 65.784 30.9606 68.136 30.9606C70.489 30.9606 72.406 29.1566 72.406 26.7076C72.405 24.2436 70.488 22.4546 68.136 22.4546ZM68.136 29.2866C66.847 29.2866 65.736 28.2236 65.736 26.7086C65.736 25.1776 66.848 24.1306 68.136 24.1306C69.425 24.1306 70.536 25.1776 70.536 26.7086C70.536 28.2226 69.425 29.2866 68.136 29.2866ZM58.822 22.4546C56.47 22.4546 54.553 24.2436 54.553 26.7076C54.553 29.1566 56.47 30.9606 58.822 30.9606C61.175 30.9606 63.092 29.1566 63.092 26.7076C63.092 24.2436 61.175 22.4546 58.822 22.4546ZM58.822 29.2866C57.533 29.2866 56.422 28.2236 56.422 26.7086C56.422 25.1776 57.534 24.1306 58.822 24.1306C60.111 24.1306 61.222 25.1776 61.222 26.7086C61.223 28.2226 60.111 29.2866 58.822 29.2866ZM47.744 23.7606V25.5646H52.062C51.933 26.5796 51.595 27.3206 51.079 27.8356C50.451 28.4636 49.468 29.1566 47.744 29.1566C45.086 29.1566 43.008 27.0136 43.008 24.3556C43.008 21.6976 45.086 19.5546 47.744 19.5546C49.178 19.5546 50.225 20.1186 50.998 20.8436L52.271 19.5706C51.191 18.5396 49.758 17.7506 47.744 17.7506C44.103 17.7506 41.042 20.7146 41.042 24.3556C41.042 27.9966 44.103 30.9606 47.744 30.9606C49.709 30.9606 51.192 30.3156 52.351 29.1076C53.543 27.9156 53.914 26.2396 53.914 24.8866C53.914 24.4686 53.882 24.0816 53.817 23.7596H47.744V23.7606ZM93.052 25.1616C92.698 24.2116 91.618 22.4546 89.411 22.4546C87.22 22.4546 85.399 24.1786 85.399 26.7076C85.399 29.0916 87.204 30.9606 89.62 30.9606C91.569 30.9606 92.697 29.7686 93.165 29.0756L91.715 28.1086C91.232 28.8176 90.571 29.2846 89.62 29.2846C88.67 29.2846 87.993 28.8496 87.558 27.9956L93.245 25.6436L93.052 25.1616ZM87.252 26.5796C87.204 24.9356 88.525 24.0986 89.476 24.0986C90.217 24.0986 90.845 24.4696 91.055 25.0006L87.252 26.5796ZM82.629 30.7036H84.497V18.2026H82.629V30.7036ZM79.567 23.4056H79.503C79.084 22.9056 78.278 22.4546 77.264 22.4546C75.137 22.4546 73.188 24.3236 73.188 26.7246C73.188 29.1086 75.137 30.9616 77.264 30.9616C78.279 30.9616 79.084 30.5106 79.503 29.9956H79.567V30.6076C79.567 32.2346 78.697 33.1046 77.296 33.1046C76.152 33.1046 75.443 32.2836 75.153 31.5906L73.526 32.2676C73.993 33.3946 75.233 34.7806 77.296 34.7806C79.487 34.7806 81.34 33.4916 81.34 30.3496V22.7136H79.568V23.4056H79.567ZM77.425 29.2866C76.136 29.2866 75.057 28.2066 75.057 26.7246C75.057 25.2256 76.136 24.1306 77.425 24.1306C78.697 24.1306 79.696 25.2256 79.696 26.7246C79.696 28.2066 78.697 29.2866 77.425 29.2866ZM101.806 18.2026H97.335V30.7036H99.2V25.9676H101.805C103.873 25.9676 105.907 24.4706 105.907 22.0856C105.907 19.7006 103.874 18.2026 101.806 18.2026ZM101.854 24.2276H99.2V19.9426H101.854C103.249 19.9426 104.041 21.0976 104.041 22.0856C104.041 23.0536 103.249 24.2276 101.854 24.2276ZM113.386 22.4326C112.035 22.4326 110.636 23.0276 110.057 24.3466L111.713 25.0376C112.067 24.3466 112.727 24.1206 113.418 24.1206C114.383 24.1206 115.364 24.6996 115.38 25.7286V25.8576C115.042 25.6646 114.318 25.3756 113.434 25.3756C111.649 25.3756 109.831 26.3566 109.831 28.1896C109.831 29.8626 111.295 30.9396 112.935 30.9396C114.189 30.9396 114.881 30.3766 115.315 29.7166H115.379V30.6816H117.181V25.8886C117.182 23.6706 115.524 22.4326 113.386 22.4326ZM113.16 29.2836C112.55 29.2836 111.697 28.9776 111.697 28.2216C111.697 27.2566 112.759 26.8866 113.676 26.8866C114.495 26.8866 114.882 27.0636 115.38 27.3046C115.235 28.4636 114.238 29.2836 113.16 29.2836ZM123.743 22.7056L121.604 28.1256H121.54L119.32 22.7056H117.31L120.639 30.2806L118.741 34.4946H120.687L125.818 22.7056H123.743ZM106.937 30.7036H108.802V18.2026H106.937V30.7036Z" fill="white"/>
<path fill-rule="evenodd" clip-rule="evenodd" d="M10.1565 8.66997C10.0384 8.93747 9.97314 9.26523 9.97314 9.64649V31.7625C9.97314 32.1446 10.0385 32.4724 10.1567 32.7398L22.1907 20.7041L10.1565 8.66997ZM10.8517 33.459C11.2978 33.6498 11.8797 33.5893 12.5141 33.2295L26.6712 25.1847L22.8978 21.4112L10.8517 33.459ZM27.5737 24.6729L32.0151 22.1495C33.4121 21.3545 33.4121 20.0555 32.0151 19.2615L27.5717 16.7366L23.6048 20.7041L27.5737 24.6729ZM26.6699 16.2242L12.5141 8.1805C11.8796 7.81992 11.2977 7.75976 10.8516 7.95089L22.8977 19.997L26.6699 16.2242Z" fill="white"/>
<path d="M41.2668 13.703V7.617H43.4683C43.95 7.617 44.3636 7.77567 44.7093 8.093C45.055 8.40467 45.2278 8.7985 45.2278 9.2745C45.2278 9.87517 44.953 10.2973 44.4033 10.541V10.575C44.715 10.677 44.9643 10.8555 45.1513 11.1105C45.3383 11.3598 45.4318 11.646 45.4318 11.969C45.4318 12.4677 45.2505 12.8813 44.8878 13.21C44.5365 13.5387 44.103 13.703 43.5873 13.703H41.2668ZM42.0488 8.365V10.2265H43.4683C43.746 10.2265 43.9783 10.133 44.1653 9.946C44.3523 9.75334 44.4458 9.53517 44.4458 9.2915C44.4458 9.0535 44.3551 8.83817 44.1738 8.6455C43.9925 8.4585 43.7686 8.365 43.5023 8.365H42.0488ZM42.0488 10.9575V12.955H43.6213C43.9046 12.955 44.1455 12.8558 44.3438 12.6575C44.5365 12.4592 44.6328 12.224 44.6328 11.952C44.6328 11.6857 44.5336 11.4533 44.3353 11.255C44.137 11.0567 43.8876 10.9575 43.5873 10.9575H42.0488ZM48.4277 13.839C47.8157 13.839 47.3113 13.6293 46.9147 13.21C46.518 12.7907 46.3197 12.2608 46.3197 11.6205C46.3197 10.9858 46.5123 10.4588 46.8977 10.0395C47.283 9.6145 47.776 9.402 48.3767 9.402C48.9943 9.402 49.4845 9.60317 49.8472 10.0055C50.2155 10.4022 50.3997 10.9603 50.3997 11.68L50.3912 11.765H47.1187C47.13 12.173 47.266 12.5017 47.5267 12.751C47.7873 13.0003 48.099 13.125 48.4617 13.125C48.9603 13.125 49.3513 12.8757 49.6347 12.377L50.3317 12.717C50.1447 13.0683 49.884 13.3432 49.5497 13.5415C49.221 13.7398 48.847 13.839 48.4277 13.839ZM47.1782 11.119H49.5667C49.544 10.83 49.425 10.592 49.2097 10.405C49 10.2123 48.7167 10.116 48.3597 10.116C48.065 10.116 47.81 10.2067 47.5947 10.388C47.385 10.5693 47.2462 10.813 47.1782 11.119ZM53.0193 13.771C52.6793 13.771 52.3959 13.6662 52.1693 13.4565C51.9483 13.2468 51.8349 12.955 51.8293 12.581V10.252H51.0983V9.538H51.8293V8.263H52.6113V9.538H53.6313V10.252H52.6113V12.326C52.6113 12.6037 52.6651 12.7935 52.7728 12.8955C52.8804 12.9918 53.0023 13.04 53.1383 13.04C53.2006 13.04 53.2601 13.0343 53.3168 13.023C53.3791 13.006 53.4358 12.9862 53.4868 12.9635L53.7333 13.6605C53.5293 13.7342 53.2913 13.771 53.0193 13.771ZM55.2417 12.428C55.2417 12.632 55.3267 12.802 55.4967 12.938C55.6723 13.074 55.8763 13.142 56.1087 13.142C56.4373 13.142 56.7292 13.0202 56.9842 12.7765C57.2448 12.5328 57.3752 12.2467 57.3752 11.918C57.1315 11.7253 56.7915 11.629 56.3552 11.629C56.0378 11.629 55.7715 11.7055 55.5562 11.8585C55.3465 12.0115 55.2417 12.2013 55.2417 12.428ZM56.2532 9.402C56.8312 9.402 57.2873 9.55784 57.6217 9.8695C57.956 10.1755 58.1232 10.5977 58.1232 11.136V13.703H57.3752V13.125H57.3412C57.0182 13.601 56.5875 13.839 56.0492 13.839C55.5902 13.839 55.2048 13.703 54.8932 13.431C54.5872 13.159 54.4342 12.819 54.4342 12.411C54.4342 11.9803 54.5957 11.6375 54.9187 11.3825C55.2473 11.1275 55.6837 11 56.2277 11C56.6923 11 57.0748 11.085 57.3752 11.255V11.0765C57.3752 10.8045 57.2675 10.575 57.0522 10.388C56.8368 10.1953 56.5847 10.099 56.2957 10.099C55.8593 10.099 55.5137 10.2832 55.2587 10.6515L54.5702 10.218C54.9498 9.674 55.5108 9.402 56.2532 9.402ZM63.5025 8.365V13.703H62.7205V8.365H61.0205V7.617H65.2025V8.365H63.5025ZM67.4522 13.839C66.8402 13.839 66.3358 13.6293 65.9392 13.21C65.5425 12.7907 65.3442 12.2608 65.3442 11.6205C65.3442 10.9858 65.5368 10.4588 65.9222 10.0395C66.3075 9.6145 66.8005 9.402 67.4012 9.402C68.0188 9.402 68.509 9.60317 68.8717 10.0055C69.24 10.4022 69.4242 10.9603 69.4242 11.68L69.4157 11.765H66.1432C66.1545 12.173 66.2905 12.5017 66.5512 12.751C66.8118 13.0003 67.1235 13.125 67.4862 13.125C67.9848 13.125 68.3758 12.8757 68.6592 12.377L69.3562 12.717C69.1692 13.0683 68.9085 13.3432 68.5742 13.5415C68.2455 13.7398 67.8715 13.839 67.4522 13.839ZM66.2027 11.119H68.5912C68.5685 10.83 68.4495 10.592 68.2342 10.405C68.0245 10.2123 67.7412 10.116 67.3842 10.116C67.0895 10.116 66.8345 10.2067 66.6192 10.388C66.4095 10.5693 66.2707 10.813 66.2027 11.119ZM73.7483 12.547C73.7483 12.9097 73.5896 13.2157 73.2723 13.465C72.955 13.7143 72.5555 13.839 72.0738 13.839C71.6545 13.839 71.2861 13.7313 70.9688 13.516C70.6515 13.295 70.4248 13.006 70.2888 12.649L70.9858 12.3515C71.0878 12.6008 71.2351 12.7963 71.4278 12.938C71.6261 13.074 71.8415 13.142 72.0738 13.142C72.3231 13.142 72.53 13.0882 72.6943 12.9805C72.8643 12.8728 72.9493 12.7453 72.9493 12.598C72.9493 12.3317 72.7453 12.1362 72.3373 12.0115L71.6233 11.833C70.813 11.629 70.4078 11.238 70.4078 10.66C70.4078 10.2803 70.5608 9.97717 70.8668 9.7505C71.1785 9.51817 71.5751 9.402 72.0568 9.402C72.4251 9.402 72.7566 9.48984 73.0513 9.6655C73.3516 9.84117 73.5613 10.0763 73.6803 10.371L72.9833 10.66C72.904 10.4843 72.7736 10.3483 72.5923 10.252C72.4166 10.15 72.2183 10.099 71.9973 10.099C71.7933 10.099 71.6091 10.15 71.4448 10.252C71.2861 10.354 71.2068 10.4787 71.2068 10.626C71.2068 10.864 71.4306 11.034 71.8783 11.136L72.5073 11.2975C73.3346 11.5015 73.7483 11.918 73.7483 12.547ZM76.4165 13.771C76.0765 13.771 75.7931 13.6662 75.5665 13.4565C75.3455 13.2468 75.2321 12.955 75.2265 12.581V10.252H74.4955V9.538H75.2265V8.263H76.0085V9.538H77.0285V10.252H76.0085V12.326C76.0085 12.6037 76.0623 12.7935 76.17 12.8955C76.2776 12.9918 76.3995 13.04 76.5355 13.04C76.5978 13.04 76.6573 13.0343 76.714 13.023C76.7763 13.006 76.833 12.9862 76.884 12.9635L77.1305 13.6605C76.9265 13.7342 76.6885 13.771 76.4165 13.771ZM79.2053 8.1015C79.2053 8.2545 79.1515 8.38484 79.0438 8.4925C78.9362 8.60017 78.8058 8.654 78.6528 8.654C78.4998 8.654 78.3695 8.60017 78.2618 8.4925C78.1542 8.38484 78.1003 8.2545 78.1003 8.1015C78.1003 7.9485 78.1542 7.81817 78.2618 7.7105C78.3695 7.60284 78.4998 7.549 78.6528 7.549C78.8058 7.549 78.9362 7.60284 79.0438 7.7105C79.1515 7.81817 79.2053 7.9485 79.2053 8.1015ZM79.0438 9.538V13.703H78.2618V9.538H79.0438ZM80.4415 9.538H81.1895V10.116H81.2235C81.3425 9.912 81.5239 9.742 81.7675 9.606C82.0169 9.47 82.2747 9.402 82.541 9.402C83.051 9.402 83.442 9.54934 83.714 9.844C83.9917 10.133 84.1305 10.5467 84.1305 11.085V13.703H83.3485V11.136C83.3315 10.456 82.9887 10.116 82.32 10.116C82.0084 10.116 81.7477 10.2435 81.538 10.4985C81.3284 10.7478 81.2235 11.0482 81.2235 11.3995V13.703H80.4415V9.538ZM87.257 13.125C87.6423 13.125 87.9568 12.9862 88.2005 12.7085C88.4555 12.4308 88.583 12.0682 88.583 11.6205C88.583 11.1842 88.4555 10.8243 88.2005 10.541C87.9511 10.2577 87.6366 10.116 87.257 10.116C86.883 10.116 86.5685 10.2577 86.3135 10.541C86.0585 10.8243 85.931 11.1842 85.931 11.6205C85.931 12.0625 86.0585 12.4223 86.3135 12.7C86.5685 12.9833 86.883 13.125 87.257 13.125ZM87.2315 15.675C86.9991 15.675 86.781 15.6438 86.577 15.5815C86.373 15.5248 86.186 15.4427 86.016 15.335C85.8516 15.2273 85.71 15.0998 85.591 14.9525C85.472 14.8052 85.3813 14.6408 85.319 14.4595L86.0585 14.1535C86.1435 14.3972 86.2908 14.5927 86.5005 14.74C86.7101 14.8873 86.9538 14.961 87.2315 14.961C87.6565 14.961 87.988 14.8335 88.226 14.5785C88.464 14.3235 88.583 13.9722 88.583 13.5245V13.125H88.549C88.4016 13.346 88.2005 13.5217 87.9455 13.652C87.6961 13.7767 87.4241 13.839 87.1295 13.839C86.5855 13.839 86.118 13.6265 85.727 13.2015C85.3416 12.7652 85.149 12.2382 85.149 11.6205C85.149 11.0028 85.3416 10.4787 85.727 10.048C86.118 9.61734 86.5855 9.402 87.1295 9.402C87.4241 9.402 87.6961 9.46717 87.9455 9.5975C88.2005 9.72217 88.4016 9.895 88.549 10.116H88.583V9.538H89.331V13.5245C89.331 14.1932 89.1411 14.7173 88.7615 15.097C88.3761 15.4823 87.8661 15.675 87.2315 15.675ZM98.8111 9.538L97.4681 13.703H96.6691L95.6321 10.507L94.6036 13.703H93.8131L92.4701 9.538H93.2861L94.2126 12.683H94.2211L95.2496 9.538H96.0571L97.0856 12.683H97.0941L98.0121 9.538H98.8111ZM100.712 8.1015C100.712 8.2545 100.658 8.38484 100.55 8.4925C100.443 8.60017 100.312 8.654 100.159 8.654C100.006 8.654 99.876 8.60017 99.7683 8.4925C99.6606 8.38484 99.6068 8.2545 99.6068 8.1015C99.6068 7.9485 99.6606 7.81817 99.7683 7.7105C99.876 7.60284 100.006 7.549 100.159 7.549C100.312 7.549 100.443 7.60284 100.55 7.7105C100.658 7.81817 100.712 7.9485 100.712 8.1015ZM100.55 9.538V13.703H99.7683V9.538H100.55ZM103.555 13.771C103.215 13.771 102.932 13.6662 102.705 13.4565C102.484 13.2468 102.371 12.955 102.365 12.581V10.252H101.634V9.538H102.365V8.263H103.147V9.538H104.167V10.252H103.147V12.326C103.147 12.6037 103.201 12.7935 103.309 12.8955C103.417 12.9918 103.538 13.04 103.674 13.04C103.737 13.04 103.796 13.0343 103.853 13.023C103.915 13.006 103.972 12.9862 104.023 12.9635L104.269 13.6605C104.065 13.7342 103.827 13.771 103.555 13.771ZM105.333 7.617H106.115V9.538L106.081 10.116H106.115C106.234 9.912 106.415 9.742 106.659 9.606C106.908 9.47 107.166 9.402 107.432 9.402C107.942 9.402 108.333 9.54934 108.605 9.844C108.883 10.133 109.022 10.5467 109.022 11.085V13.703H108.24V11.238C108.24 10.49 107.908 10.116 107.245 10.116C106.928 10.116 106.659 10.2492 106.438 10.5155C106.223 10.7762 106.115 11.0822 106.115 11.4335V13.703H105.333V7.617Z" fill="white"/>
<path d="M41.2668 13.703H41.2068V13.763H41.2668V13.703ZM41.2668 7.617V7.557H41.2068V7.617H41.2668ZM44.7093 8.093L44.6687 8.1372L44.6691 8.13756L44.7093 8.093ZM44.4033 10.541L44.379 10.4862L44.3433 10.502V10.541H44.4033ZM44.4033 10.575H44.3433V10.6185L44.3846 10.632L44.4033 10.575ZM45.1513 11.1105L45.1029 11.146L45.1033 11.1465L45.1513 11.1105ZM44.8878 13.21L44.8475 13.1655L44.8468 13.1662L44.8878 13.21ZM42.0488 8.365V8.305H41.9888V8.365H42.0488ZM42.0488 10.2265H41.9888V10.2865H42.0488V10.2265ZM44.1653 9.946L44.2077 9.98843L44.2083 9.98779L44.1653 9.946ZM44.1738 8.6455L44.2175 8.60438L44.2169 8.60373L44.1738 8.6455ZM42.0488 10.9575V10.8975H41.9888V10.9575H42.0488ZM42.0488 12.955H41.9888V13.015H42.0488V12.955ZM44.3438 12.6575L44.3862 12.6999L44.3868 12.6993L44.3438 12.6575ZM41.3268 13.703V7.617H41.2068V13.703H41.3268ZM41.2668 7.677H43.4683V7.557H41.2668V7.677ZM43.4683 7.677C43.9354 7.677 44.3344 7.83032 44.6687 8.1372L44.7499 8.0488C44.3928 7.72101 43.9645 7.557 43.4683 7.557V7.677ZM44.6691 8.13756C45.0018 8.43756 45.1678 8.81505 45.1678 9.2745H45.2878C45.2878 8.78195 45.1081 8.37178 44.7495 8.04844L44.6691 8.13756ZM45.1678 9.2745C45.1678 9.56548 45.1013 9.80929 44.9714 10.0089C44.8414 10.2085 44.6453 10.3681 44.379 10.4862L44.4276 10.5959C44.711 10.4702 44.9271 10.2969 45.0719 10.0744C45.2168 9.8518 45.2878 9.58419 45.2878 9.2745H45.1678ZM44.3433 10.541V10.575H44.4633V10.541H44.3433ZM44.3846 10.632C44.6848 10.7303 44.9236 10.9015 45.1029 11.146L45.1997 11.075C45.005 10.8095 44.7451 10.6237 44.4219 10.518L44.3846 10.632ZM45.1033 11.1465C45.2822 11.3851 45.3718 11.6585 45.3718 11.969H45.4918C45.4918 11.6335 45.3944 11.3346 45.1993 11.0745L45.1033 11.1465ZM45.3718 11.969C45.3718 12.4511 45.1973 12.8485 44.8475 13.1655L44.9281 13.2545C45.3036 12.9142 45.4918 12.4842 45.4918 11.969H45.3718ZM44.8468 13.1662C44.5074 13.4837 44.0889 13.643 43.5873 13.643V13.763C44.117 13.763 44.5655 13.5937 44.9288 13.2538L44.8468 13.1662ZM43.5873 13.643H41.2668V13.763H43.5873V13.643ZM41.9888 8.365V10.2265H42.1088V8.365H41.9888ZM42.0488 10.2865H43.4683V10.1665H42.0488V10.2865ZM43.4683 10.2865C43.761 10.2865 44.0088 10.1873 44.2077 9.98843L44.1229 9.90358C43.9477 10.0787 43.7309 10.1665 43.4683 10.1665V10.2865ZM44.2083 9.98779C44.405 9.78518 44.5058 9.55243 44.5058 9.2915H44.3858C44.3858 9.51791 44.2996 9.7215 44.1222 9.90421L44.2083 9.98779ZM44.5058 9.2915C44.5058 9.03646 44.408 8.80683 44.2175 8.60438L44.1301 8.68662C44.3022 8.86951 44.3858 9.07054 44.3858 9.2915H44.5058ZM44.2169 8.60373C44.0239 8.40479 43.7844 8.305 43.5023 8.305V8.425C43.7528 8.425 43.961 8.51222 44.1307 8.68727L44.2169 8.60373ZM43.5023 8.305H42.0488V8.425H43.5023V8.305ZM41.9888 10.9575V12.955H42.1088V10.9575H41.9888ZM42.0488 13.015H43.6213V12.895H42.0488V13.015ZM43.6213 13.015C43.9203 13.015 44.1765 12.9096 44.3862 12.6999L44.3014 12.6151C44.1144 12.802 43.8889 12.895 43.6213 12.895V13.015ZM44.3868 12.6993C44.5902 12.49 44.6928 12.2399 44.6928 11.952H44.5728C44.5728 12.2081 44.4827 12.4284 44.3007 12.6157L44.3868 12.6993ZM44.6928 11.952C44.6928 11.6688 44.5866 11.4215 44.3777 11.2126L44.2929 11.2974C44.4806 11.4852 44.5728 11.7025 44.5728 11.952H44.6928ZM44.3777 11.2126C44.1673 11.0021 43.9023 10.8975 43.5873 10.8975V11.0175C43.873 11.0175 44.1066 11.1112 44.2929 11.2974L44.3777 11.2126ZM43.5873 10.8975H42.0488V11.0175H43.5873V10.8975ZM46.9147 13.21L46.9582 13.1688L46.9147 13.21ZM46.8977 10.0395L46.9418 10.0801L46.9421 10.0798L46.8977 10.0395ZM49.8472 10.0055L49.8026 10.0457L49.8032 10.0463L49.8472 10.0055ZM50.3997 11.68L50.4597 11.686V11.68H50.3997ZM50.3912 11.765V11.825H50.4455L50.4509 11.771L50.3912 11.765ZM47.1187 11.765V11.705H47.057L47.0587 11.7667L47.1187 11.765ZM47.5267 12.751L47.4852 12.7944L47.4852 12.7944L47.5267 12.751ZM49.6347 12.377L49.661 12.3231L49.6103 12.2984L49.5825 12.3474L49.6347 12.377ZM50.3317 12.717L50.3846 12.7452L50.4138 12.6903L50.358 12.6631L50.3317 12.717ZM49.5497 13.5415L49.519 13.4899L49.5187 13.4901L49.5497 13.5415ZM47.1782 11.119L47.1196 11.106L47.1034 11.179H47.1782V11.119ZM49.5667 11.119V11.179H49.6316L49.6265 11.1143L49.5667 11.119ZM49.2097 10.405L49.169 10.4492L49.1703 10.4503L49.2097 10.405ZM47.5947 10.388L47.556 10.3421L47.5554 10.3426L47.5947 10.388ZM48.4277 13.779C47.831 13.779 47.3428 13.5753 46.9582 13.1688L46.8711 13.2512C47.2798 13.6833 47.8003 13.899 48.4277 13.899V13.779ZM46.9582 13.1688C46.5733 12.7618 46.3797 12.2473 46.3797 11.6205H46.2597C46.2597 12.2744 46.4627 12.8195 46.8711 13.2512L46.9582 13.1688ZM46.3797 11.6205C46.3797 10.999 46.5679 10.4871 46.9418 10.0801L46.8535 9.99891C46.4568 10.4306 46.2597 10.9727 46.2597 11.6205H46.3797ZM46.9421 10.0798C47.3155 9.668 47.792 9.462 48.3767 9.462V9.342C47.76 9.342 47.2505 9.561 46.8532 9.9992L46.9421 10.0798ZM48.3767 9.462C48.98 9.462 49.453 9.6578 49.8026 10.0457L49.8917 9.96533C49.516 9.54854 49.0087 9.342 48.3767 9.342V9.462ZM49.8032 10.0463C50.1582 10.4287 50.3397 10.9704 50.3397 11.68H50.4597C50.4597 10.9503 50.2728 10.3757 49.8911 9.96468L49.8032 10.0463ZM50.34 11.674L50.3315 11.759L50.4509 11.771L50.4594 11.686L50.34 11.674ZM50.3912 11.705H47.1187V11.825H50.3912V11.705ZM47.0587 11.7667C47.0704 12.1882 47.2116 12.5326 47.4852 12.7944L47.5681 12.7076C47.3204 12.4707 47.1896 12.1578 47.1786 11.7633L47.0587 11.7667ZM47.4852 12.7944C47.7571 13.0544 48.0836 13.185 48.4617 13.185V13.065C48.1144 13.065 47.8176 12.9462 47.5681 12.7076L47.4852 12.7944ZM48.4617 13.185C48.9855 13.185 49.3948 12.9207 49.6868 12.4066L49.5825 12.3474C49.3079 12.8306 48.9351 13.065 48.4617 13.065V13.185ZM49.6084 12.4309L50.3054 12.7709L50.358 12.6631L49.661 12.3231L49.6084 12.4309ZM50.2787 12.6888C50.0967 13.0307 49.8437 13.2973 49.519 13.4899L49.5803 13.5931C49.9243 13.389 50.1926 13.106 50.3846 12.7452L50.2787 12.6888ZM49.5187 13.4901C49.2002 13.6823 48.8371 13.779 48.4277 13.779V13.899C48.8569 13.899 49.2418 13.7974 49.5807 13.5929L49.5187 13.4901ZM47.1782 11.179H49.5667V11.059H47.1782V11.179ZM49.6265 11.1143C49.6026 10.8099 49.4764 10.5572 49.249 10.3597L49.1703 10.4503C49.3735 10.6268 49.4854 10.8501 49.5068 11.1237L49.6265 11.1143ZM49.2503 10.3608C49.0269 10.1556 48.7277 10.056 48.3597 10.056V10.176C48.7056 10.176 48.9731 10.2691 49.1691 10.4492L49.2503 10.3608ZM48.3597 10.056C48.0516 10.056 47.7827 10.1512 47.556 10.3421L47.6333 10.4339C47.8373 10.2621 48.0784 10.176 48.3597 10.176V10.056ZM47.5554 10.3426C47.3347 10.5335 47.19 10.7891 47.1196 11.106L47.2367 11.132C47.3023 10.8369 47.4352 10.6052 47.6339 10.4334L47.5554 10.3426ZM52.1693 13.4565L52.128 13.5L52.1285 13.5005L52.1693 13.4565ZM51.8293 12.581H51.7693L51.7693 12.5819L51.8293 12.581ZM51.8293 10.252H51.8893V10.192H51.8293V10.252ZM51.0983 10.252H51.0383V10.312H51.0983V10.252ZM51.0983 9.538V9.478H51.0383V9.538H51.0983ZM51.8293 9.538V9.598H51.8893V9.538H51.8293ZM51.8293 8.263V8.203H51.7693V8.263H51.8293ZM52.6113 8.263H52.6713V8.203H52.6113V8.263ZM52.6113 9.538H52.5513V9.598H52.6113V9.538ZM53.6313 9.538H53.6913V9.478H53.6313V9.538ZM53.6313 10.252V10.312H53.6913V10.252H53.6313ZM52.6113 10.252V10.192H52.5513V10.252H52.6113ZM52.7728 12.8955L52.7315 12.9391L52.7328 12.9402L52.7728 12.8955ZM53.3168 13.023L53.3286 13.082L53.3326 13.0809L53.3168 13.023ZM53.4868 12.9635L53.5433 12.9435L53.5217 12.8823L53.4624 12.9087L53.4868 12.9635ZM53.7333 13.6605L53.7537 13.7169L53.8097 13.6967L53.7898 13.6405L53.7333 13.6605ZM53.0193 13.711C52.6927 13.711 52.4244 13.6108 52.21 13.4125L52.1285 13.5005C52.3675 13.7215 52.6658 13.831 53.0193 13.831V13.711ZM52.2106 13.413C52.0039 13.2169 51.8948 12.9419 51.8893 12.5801L51.7693 12.5819C51.7751 12.9681 51.8927 13.2768 52.128 13.5L52.2106 13.413ZM51.8893 12.581V10.252H51.7693V12.581H51.8893ZM51.8293 10.192H51.0983V10.312H51.8293V10.192ZM51.1583 10.252V9.538H51.0383V10.252H51.1583ZM51.0983 9.598H51.8293V9.478H51.0983V9.598ZM51.8893 9.538V8.263H51.7693V9.538H51.8893ZM51.8293 8.323H52.6113V8.203H51.8293V8.323ZM52.5513 8.263V9.538H52.6713V8.263H52.5513ZM52.6113 9.598H53.6313V9.478H52.6113V9.598ZM53.5713 9.538V10.252H53.6913V9.538H53.5713ZM53.6313 10.192H52.6113V10.312H53.6313V10.192ZM52.5513 10.252V12.326H52.6713V10.252H52.5513ZM52.5513 12.326C52.5513 12.6072 52.6049 12.8191 52.7315 12.9391L52.814 12.8519C52.7253 12.7679 52.6713 12.6002 52.6713 12.326H52.5513ZM52.7328 12.9402C52.8507 13.0457 52.9865 13.1 53.1383 13.1V12.98C53.018 12.98 52.9102 12.9379 52.8128 12.8508L52.7328 12.9402ZM53.1383 13.1C53.2043 13.1 53.2677 13.094 53.3285 13.0818L53.305 12.9642C53.2525 12.9747 53.197 12.98 53.1383 12.98V13.1ZM53.3326 13.0809C53.3974 13.0632 53.457 13.0424 53.5111 13.0183L53.4624 12.9087C53.4146 12.9299 53.3608 12.9488 53.301 12.9651L53.3326 13.0809ZM53.4302 12.9835L53.6767 13.6805L53.7898 13.6405L53.5433 12.9435L53.4302 12.9835ZM53.7129 13.6041C53.5169 13.6749 53.286 13.711 53.0193 13.711V13.831C53.2965 13.831 53.5417 13.7935 53.7537 13.7169L53.7129 13.6041ZM55.4967 12.938L55.4592 12.9849L55.4599 12.9854L55.4967 12.938ZM56.9842 12.7765L56.9432 12.7327L56.9427 12.7331L56.9842 12.7765ZM57.3752 11.918H57.4352V11.889L57.4124 11.8709L57.3752 11.918ZM55.5562 11.8585L55.5214 11.8096L55.5208 11.81L55.5562 11.8585ZM57.6217 9.8695L57.5807 9.91339L57.5811 9.91376L57.6217 9.8695ZM58.1232 13.703V13.763H58.1832V13.703H58.1232ZM57.3752 13.703H57.3152V13.763H57.3752V13.703ZM57.3752 13.125H57.4352V13.065H57.3752V13.125ZM57.3412 13.125V13.065H57.3094L57.2915 13.0913L57.3412 13.125ZM54.8932 13.431L54.8533 13.4758L54.8537 13.4762L54.8932 13.431ZM54.9187 11.3825L54.8819 11.3351L54.8815 11.3354L54.9187 11.3825ZM57.3752 11.255L57.3456 11.3072L57.4352 11.3579V11.255H57.3752ZM57.0522 10.388L57.0121 10.4327L57.0128 10.4333L57.0522 10.388ZM55.2587 10.6515L55.2267 10.7023L55.2753 10.7329L55.308 10.6857L55.2587 10.6515ZM54.5702 10.218L54.521 10.1837L54.4849 10.2353L54.5382 10.2688L54.5702 10.218ZM55.1817 12.428C55.1817 12.6516 55.276 12.8383 55.4592 12.9849L55.5341 12.8912C55.3773 12.7657 55.3017 12.6124 55.3017 12.428H55.1817ZM55.4599 12.9854C55.6466 13.13 55.8637 13.202 56.1087 13.202V13.082C55.889 13.082 55.698 13.018 55.5334 12.8906L55.4599 12.9854ZM56.1087 13.202C56.454 13.202 56.7603 13.0734 57.0256 12.8199L56.9427 12.7331C56.698 12.967 56.4207 13.082 56.1087 13.082V13.202ZM57.0251 12.8203C57.2968 12.5664 57.4352 12.2648 57.4352 11.918H57.3152C57.3152 12.2285 57.1929 12.4993 56.9432 12.7327L57.0251 12.8203ZM57.4124 11.8709C57.1546 11.6671 56.7996 11.569 56.3552 11.569V11.689C56.7833 11.689 57.1084 11.7836 57.3379 11.9651L57.4124 11.8709ZM56.3552 11.569C56.0279 11.569 55.7488 11.648 55.5214 11.8096L55.5909 11.9074C55.7942 11.763 56.0477 11.689 56.3552 11.689V11.569ZM55.5208 11.81C55.2982 11.9725 55.1817 12.1792 55.1817 12.428H55.3017C55.3017 12.2235 55.3948 12.0506 55.5915 11.907L55.5208 11.81ZM56.2532 9.462C56.8202 9.462 57.2602 9.61462 57.5807 9.91339L57.6626 9.82561C57.3144 9.50106 56.8422 9.342 56.2532 9.342V9.462ZM57.5811 9.91376C57.9007 10.2063 58.0632 10.6111 58.0632 11.136H58.1832C58.1832 10.5843 58.0112 10.1447 57.6622 9.82524L57.5811 9.91376ZM58.0632 11.136V13.703H58.1832V11.136H58.0632ZM58.1232 13.643H57.3752V13.763H58.1232V13.643ZM57.4352 13.703V13.125H57.3152V13.703H57.4352ZM57.3752 13.065H57.3412V13.185H57.3752V13.065ZM57.2915 13.0913C56.9788 13.5522 56.566 13.779 56.0492 13.779V13.899C56.6089 13.899 57.0575 13.6498 57.3908 13.1587L57.2915 13.0913ZM56.0492 13.779C55.603 13.779 55.2321 13.6472 54.9326 13.3858L54.8537 13.4762C55.1775 13.7588 55.5774 13.899 56.0492 13.899V13.779ZM54.933 13.3862C54.6398 13.1255 54.4942 12.8018 54.4942 12.411H54.3742C54.3742 12.8362 54.5345 13.1925 54.8533 13.4758L54.933 13.3862ZM54.4942 12.411C54.4942 11.9977 54.648 11.6726 54.9558 11.4296L54.8815 11.3354C54.5433 11.6024 54.3742 11.963 54.3742 12.411H54.4942ZM54.9554 11.4299C55.2707 11.1853 55.6929 11.06 56.2277 11.06V10.94C55.6744 10.94 55.2239 11.0697 54.8819 11.3351L54.9554 11.4299ZM56.2277 11.06C56.6854 11.06 57.0569 11.1438 57.3456 11.3072L57.4047 11.2028C57.0928 11.0262 56.6992 10.94 56.2277 10.94V11.06ZM57.4352 11.255V11.0765H57.3152V11.255H57.4352ZM57.4352 11.0765C57.4352 10.7862 57.3192 10.5405 57.0915 10.3427L57.0128 10.4333C57.2157 10.6095 57.3152 10.8228 57.3152 11.0765H57.4352ZM57.0922 10.3433C56.8658 10.1408 56.5994 10.039 56.2957 10.039V10.159C56.5699 10.159 56.8078 10.2499 57.0121 10.4327L57.0922 10.3433ZM56.2957 10.039C55.839 10.039 55.4752 10.2333 55.2093 10.6174L55.308 10.6857C55.5521 10.333 55.8796 10.159 56.2957 10.159V10.039ZM55.2906 10.6007L54.6021 10.1672L54.5382 10.2688L55.2267 10.7023L55.2906 10.6007ZM54.6194 10.2523C54.9863 9.72653 55.5277 9.462 56.2532 9.462V9.342C55.4939 9.342 54.9133 9.62148 54.521 10.1837L54.6194 10.2523ZM63.5025 8.365V8.305H63.4425V8.365H63.5025ZM63.5025 13.703V13.763H63.5625V13.703H63.5025ZM62.7205 13.703H62.6605V13.763H62.7205V13.703ZM62.7205 8.365H62.7805V8.305H62.7205V8.365ZM61.0205 8.365H60.9605V8.425H61.0205V8.365ZM61.0205 7.617V7.557H60.9605V7.617H61.0205ZM65.2025 7.617H65.2625V7.557H65.2025V7.617ZM65.2025 8.365V8.425H65.2625V8.365H65.2025ZM63.4425 8.365V13.703H63.5625V8.365H63.4425ZM63.5025 13.643H62.7205V13.763H63.5025V13.643ZM62.7805 13.703V8.365H62.6605V13.703H62.7805ZM62.7205 8.305H61.0205V8.425H62.7205V8.305ZM61.0805 8.365V7.617H60.9605V8.365H61.0805ZM61.0205 7.677H65.2025V7.557H61.0205V7.677ZM65.1425 7.617V8.365H65.2625V7.617H65.1425ZM65.2025 8.305H63.5025V8.425H65.2025V8.305ZM65.9392 13.21L65.9828 13.1688L65.9392 13.21ZM65.9222 10.0395L65.9664 10.0801L65.9666 10.0798L65.9222 10.0395ZM68.8717 10.0055L68.8271 10.0457L68.8277 10.0463L68.8717 10.0055ZM69.4242 11.68L69.4842 11.686V11.68H69.4242ZM69.4157 11.765V11.825H69.47L69.4754 11.771L69.4157 11.765ZM66.1432 11.765V11.705H66.0815L66.0832 11.7667L66.1432 11.765ZM66.5512 12.751L66.5097 12.7944L66.5097 12.7944L66.5512 12.751ZM68.6592 12.377L68.6855 12.3231L68.6348 12.2984L68.607 12.3474L68.6592 12.377ZM69.3562 12.717L69.4091 12.7452L69.4383 12.6903L69.3825 12.6631L69.3562 12.717ZM68.5742 13.5415L68.5436 13.4899L68.5432 13.4901L68.5742 13.5415ZM66.2027 11.119L66.1441 11.106L66.1279 11.179H66.2027V11.119ZM68.5912 11.119V11.179H68.6561L68.651 11.1143L68.5912 11.119ZM68.2342 10.405L68.1936 10.4492L68.1948 10.4503L68.2342 10.405ZM66.6192 10.388L66.5805 10.3421L66.5799 10.3426L66.6192 10.388ZM67.4522 13.779C66.8556 13.779 66.3674 13.5753 65.9828 13.1688L65.8956 13.2512C66.3043 13.6833 66.8248 13.899 67.4522 13.899V13.779ZM65.9828 13.1688C65.5978 12.7618 65.4042 12.2473 65.4042 11.6205H65.2842C65.2842 12.2744 65.4872 12.8195 65.8956 13.2512L65.9828 13.1688ZM65.4042 11.6205C65.4042 10.999 65.5924 10.4871 65.9664 10.0801L65.878 9.99891C65.4813 10.4306 65.2842 10.9727 65.2842 11.6205H65.4042ZM65.9666 10.0798C66.34 9.668 66.8165 9.462 67.4012 9.462V9.342C66.7845 9.342 66.275 9.561 65.8777 9.9992L65.9666 10.0798ZM67.4012 9.462C68.0045 9.462 68.4775 9.6578 68.8271 10.0457L68.9162 9.96533C68.5405 9.54854 68.0332 9.342 67.4012 9.342V9.462ZM68.8277 10.0463C69.1827 10.4287 69.3642 10.9704 69.3642 11.68H69.4842C69.4842 10.9503 69.2973 10.3757 68.9156 9.96468L68.8277 10.0463ZM69.3645 11.674L69.356 11.759L69.4754 11.771L69.4839 11.686L69.3645 11.674ZM69.4157 11.705H66.1432V11.825H69.4157V11.705ZM66.0832 11.7667C66.0949 12.1882 66.2361 12.5326 66.5097 12.7944L66.5926 12.7076C66.3449 12.4707 66.2141 12.1578 66.2031 11.7633L66.0832 11.7667ZM66.5097 12.7944C66.7816 13.0544 67.1081 13.185 67.4862 13.185V13.065C67.1389 13.065 66.8421 12.9462 66.5926 12.7076L66.5097 12.7944ZM67.4862 13.185C68.0101 13.185 68.4193 12.9207 68.7113 12.4066L68.607 12.3474C68.3324 12.8306 67.9596 13.065 67.4862 13.065V13.185ZM68.6329 12.4309L69.3299 12.7709L69.3825 12.6631L68.6855 12.3231L68.6329 12.4309ZM69.3032 12.6888C69.1212 13.0307 68.8682 13.2973 68.5436 13.4899L68.6048 13.5931C68.9488 13.389 69.2171 13.106 69.4091 12.7452L69.3032 12.6888ZM68.5432 13.4901C68.2247 13.6823 67.8616 13.779 67.4522 13.779V13.899C67.8814 13.899 68.2663 13.7974 68.6052 13.5929L68.5432 13.4901ZM66.2027 11.179H68.5912V11.059H66.2027V11.179ZM68.651 11.1143C68.6271 10.8099 68.501 10.5572 68.2735 10.3597L68.1948 10.4503C68.3981 10.6268 68.5099 10.8501 68.5314 11.1237L68.651 11.1143ZM68.2748 10.3608C68.0514 10.1556 67.7522 10.056 67.3842 10.056V10.176C67.7301 10.176 67.9976 10.2691 68.1936 10.4492L68.2748 10.3608ZM67.3842 10.056C67.0761 10.056 66.8072 10.1512 66.5805 10.3421L66.6578 10.4339C66.8618 10.2621 67.1029 10.176 67.3842 10.176V10.056ZM66.5799 10.3426C66.3593 10.5335 66.2145 10.7891 66.1441 11.106L66.2612 11.132C66.3268 10.8369 66.4598 10.6052 66.6584 10.4334L66.5799 10.3426ZM73.2723 13.465L73.3094 13.5122L73.3094 13.5122L73.2723 13.465ZM70.9688 13.516L70.9345 13.5652L70.9351 13.5657L70.9688 13.516ZM70.2888 12.649L70.2653 12.5938L70.2122 12.6165L70.2327 12.6704L70.2888 12.649ZM70.9858 12.3515L71.0413 12.3288L71.0183 12.2724L70.9623 12.2963L70.9858 12.3515ZM71.4278 12.938L71.3922 12.9864L71.3939 12.9875L71.4278 12.938ZM72.6943 12.9805L72.6622 12.9298L72.6614 12.9303L72.6943 12.9805ZM72.3373 12.0115L72.3549 11.954L72.3519 11.9533L72.3373 12.0115ZM71.6233 11.833L71.6087 11.8912L71.6088 11.8912L71.6233 11.833ZM70.8668 9.7505L70.9025 9.79872L70.9027 9.79861L70.8668 9.7505ZM73.0513 9.6655L73.0206 9.71704L73.021 9.71729L73.0513 9.6655ZM73.6803 10.371L73.7033 10.4264L73.7582 10.4037L73.7359 10.3485L73.6803 10.371ZM72.9833 10.66L72.9286 10.6847L72.9526 10.7377L73.0063 10.7154L72.9833 10.66ZM72.5923 10.252L72.5622 10.3039L72.5642 10.305L72.5923 10.252ZM71.4448 10.252L71.4132 10.201L71.4124 10.2015L71.4448 10.252ZM71.8783 11.136L71.8932 11.0779L71.8916 11.0775L71.8783 11.136ZM72.5073 11.2975L72.4924 11.3556L72.4929 11.3558L72.5073 11.2975ZM73.6883 12.547C73.6883 12.889 73.54 13.1784 73.2352 13.4178L73.3094 13.5122C73.6393 13.2529 73.8083 12.9303 73.8083 12.547H73.6883ZM73.2352 13.4178C72.9304 13.6573 72.5447 13.779 72.0738 13.779V13.899C72.5662 13.899 72.9795 13.7713 73.3094 13.5122L73.2352 13.4178ZM72.0738 13.779C71.6653 13.779 71.309 13.6743 71.0025 13.4664L70.9351 13.5657C71.2633 13.7884 71.6436 13.899 72.0738 13.899V13.779ZM71.0031 13.4668C70.6955 13.2526 70.4765 12.9732 70.3449 12.6276L70.2327 12.6704C70.3731 13.0388 70.6074 13.3374 70.9345 13.5652L71.0031 13.4668ZM70.3124 12.7042L71.0094 12.4067L70.9623 12.2963L70.2653 12.5938L70.3124 12.7042ZM70.9303 12.3742C71.0359 12.6324 71.1896 12.8373 71.3923 12.9863L71.4633 12.8897C71.2807 12.7553 71.1397 12.5692 71.0413 12.3288L70.9303 12.3742ZM71.3939 12.9875C71.6018 13.1301 71.8289 13.202 72.0738 13.202V13.082C71.854 13.082 71.6505 13.0179 71.4617 12.8885L71.3939 12.9875ZM72.0738 13.202C72.3317 13.202 72.5508 13.1463 72.7272 13.0307L72.6614 12.9303C72.5092 13.0301 72.3146 13.082 72.0738 13.082V13.202ZM72.7264 13.0312C72.9067 12.917 73.0093 12.773 73.0093 12.598H72.8893C72.8893 12.7176 72.8219 12.8287 72.6622 12.9298L72.7264 13.0312ZM73.0093 12.598C73.0093 12.4474 72.9508 12.3166 72.8378 12.2083C72.7265 12.1016 72.5636 12.0179 72.3548 11.9541L72.3198 12.0689C72.519 12.1298 72.6622 12.2062 72.7548 12.2949C72.8458 12.3822 72.8893 12.4823 72.8893 12.598H73.0093ZM72.3519 11.9533L71.6379 11.7748L71.6088 11.8912L72.3228 12.0697L72.3519 11.9533ZM71.638 11.7748C71.2384 11.6742 70.9456 11.5291 70.7533 11.3436C70.5628 11.1597 70.4678 10.9332 70.4678 10.66H70.3478C70.3478 10.9648 70.4554 11.2228 70.67 11.4299C70.8829 11.6354 71.1979 11.7878 71.6087 11.8912L71.638 11.7748ZM70.4678 10.66C70.4678 10.2994 70.6117 10.0141 70.9025 9.79872L70.8311 9.70229C70.5099 9.94023 70.3478 10.2613 70.3478 10.66H70.4678ZM70.9027 9.79861C71.2017 9.57569 71.5849 9.462 72.0568 9.462V9.342C71.5654 9.342 71.1552 9.46065 70.8309 9.7024L70.9027 9.79861ZM72.0568 9.462C72.4151 9.462 72.7359 9.54732 73.0206 9.71704L73.082 9.61397C72.7774 9.43235 72.4351 9.342 72.0568 9.342V9.462ZM73.021 9.71729C73.311 9.88693 73.5111 10.1123 73.6247 10.3935L73.7359 10.3485C73.6115 10.0404 73.3922 9.79541 73.0816 9.61371L73.021 9.71729ZM73.6573 10.3156L72.9603 10.6046L73.0063 10.7154L73.7033 10.4264L73.6573 10.3156ZM73.038 10.6353C72.9528 10.4467 72.8127 10.3011 72.6205 10.199L72.5642 10.305C72.7346 10.3955 72.8551 10.522 72.9286 10.6847L73.038 10.6353ZM72.6224 10.2001C72.4368 10.0923 72.2279 10.039 71.9973 10.039V10.159C72.2087 10.159 72.3965 10.2077 72.5622 10.3039L72.6224 10.2001ZM71.9973 10.039C71.7828 10.039 71.5875 10.0928 71.4132 10.201L71.4764 10.303C71.6307 10.2072 71.8038 10.159 71.9973 10.159V10.039ZM71.4124 10.2015C71.242 10.3111 71.1468 10.4525 71.1468 10.626H71.2668C71.2668 10.5048 71.3303 10.3969 71.4773 10.3025L71.4124 10.2015ZM71.1468 10.626C71.1468 10.7673 71.2146 10.8858 71.3384 10.9798C71.4601 11.0722 71.6375 11.1427 71.865 11.1945L71.8916 11.0775C71.6715 11.0273 71.5131 10.9618 71.411 10.8842C71.3109 10.8083 71.2668 10.7227 71.2668 10.626H71.1468ZM71.8634 11.1941L72.4924 11.3556L72.5222 11.2394L71.8932 11.0779L71.8634 11.1941ZM72.4929 11.3558C72.9005 11.4562 73.1992 11.6075 73.3955 11.8052C73.5903 12.0013 73.6883 12.2471 73.6883 12.547H73.8083C73.8083 12.2179 73.6995 11.9409 73.4806 11.7206C73.2633 11.5018 72.9415 11.3428 72.5217 11.2392L72.4929 11.3558ZM75.5665 13.4565L75.5252 13.5L75.5257 13.5005L75.5665 13.4565ZM75.2265 12.581H75.1665L75.1665 12.5819L75.2265 12.581ZM75.2265 10.252H75.2865V10.192H75.2265V10.252ZM74.4955 10.252H74.4355V10.312H74.4955V10.252ZM74.4955 9.538V9.478H74.4355V9.538H74.4955ZM75.2265 9.538V9.598H75.2865V9.538H75.2265ZM75.2265 8.263V8.203H75.1665V8.263H75.2265ZM76.0085 8.263H76.0685V8.203H76.0085V8.263ZM76.0085 9.538H75.9485V9.598H76.0085V9.538ZM77.0285 9.538H77.0885V9.478H77.0285V9.538ZM77.0285 10.252V10.312H77.0885V10.252H77.0285ZM76.0085 10.252V10.192H75.9485V10.252H76.0085ZM76.17 12.8955L76.1287 12.9391L76.13 12.9402L76.17 12.8955ZM76.714 13.023L76.7258 13.082L76.7298 13.0809L76.714 13.023ZM76.884 12.9635L76.9405 12.9435L76.9189 12.8823L76.8596 12.9087L76.884 12.9635ZM77.1305 13.6605L77.1508 13.7169L77.2069 13.6967L77.187 13.6405L77.1305 13.6605ZM76.4165 13.711C76.0899 13.711 75.8216 13.6108 75.6072 13.4125L75.5257 13.5005C75.7646 13.7215 76.063 13.831 76.4165 13.831V13.711ZM75.6078 13.413C75.401 13.2169 75.2919 12.9419 75.2865 12.5801L75.1665 12.5819C75.1723 12.9681 75.2899 13.2768 75.5252 13.5L75.6078 13.413ZM75.2865 12.581V10.252H75.1665V12.581H75.2865ZM75.2265 10.192H74.4955V10.312H75.2265V10.192ZM74.5555 10.252V9.538H74.4355V10.252H74.5555ZM74.4955 9.598H75.2265V9.478H74.4955V9.598ZM75.2865 9.538V8.263H75.1665V9.538H75.2865ZM75.2265 8.323H76.0085V8.203H75.2265V8.323ZM75.9485 8.263V9.538H76.0685V8.263H75.9485ZM76.0085 9.598H77.0285V9.478H76.0085V9.598ZM76.9685 9.538V10.252H77.0885V9.538H76.9685ZM77.0285 10.192H76.0085V10.312H77.0285V10.192ZM75.9485 10.252V12.326H76.0685V10.252H75.9485ZM75.9485 12.326C75.9485 12.6072 76.0021 12.8191 76.1287 12.9391L76.2112 12.8519C76.1225 12.7679 76.0685 12.6002 76.0685 12.326H75.9485ZM76.13 12.9402C76.2479 13.0457 76.3837 13.1 76.5355 13.1V12.98C76.4152 12.98 76.3074 12.9379 76.21 12.8508L76.13 12.9402ZM76.5355 13.1C76.6014 13.1 76.6649 13.094 76.7257 13.0818L76.7022 12.9642C76.6497 12.9747 76.5942 12.98 76.5355 12.98V13.1ZM76.7298 13.0809C76.7946 13.0632 76.8542 13.0424 76.9083 13.0183L76.8596 12.9087C76.8118 12.9299 76.758 12.9488 76.6982 12.9651L76.7298 13.0809ZM76.8274 12.9835L77.0739 13.6805L77.187 13.6405L76.9405 12.9435L76.8274 12.9835ZM77.1101 13.6041C76.914 13.6749 76.6832 13.711 76.4165 13.711V13.831C76.6937 13.831 76.9389 13.7935 77.1508 13.7169L77.1101 13.6041ZM79.0438 8.4925L79.0014 8.45008L79.0014 8.45008L79.0438 8.4925ZM78.2618 8.4925L78.2194 8.53493L78.2618 8.4925ZM78.2618 7.7105L78.2194 7.66808L78.2618 7.7105ZM79.0438 7.7105L79.0014 7.75293L79.0014 7.75293L79.0438 7.7105ZM79.0438 9.538H79.1038V9.478H79.0438V9.538ZM79.0438 13.703V13.763H79.1038V13.703H79.0438ZM78.2618 13.703H78.2018V13.763H78.2618V13.703ZM78.2618 9.538V9.478H78.2018V9.538H78.2618ZM79.1453 8.1015C79.1453 8.23868 79.0978 8.35372 79.0014 8.45008L79.0863 8.53493C79.2053 8.41595 79.2653 8.27033 79.2653 8.1015H79.1453ZM79.0014 8.45008C78.9051 8.54643 78.79 8.594 78.6528 8.594V8.714C78.8217 8.714 78.9673 8.65391 79.0863 8.53493L79.0014 8.45008ZM78.6528 8.594C78.5157 8.594 78.4006 8.54643 78.3043 8.45008L78.2194 8.53493C78.3384 8.65391 78.484 8.714 78.6528 8.714V8.594ZM78.3043 8.45008C78.2079 8.35372 78.1603 8.23868 78.1603 8.1015H78.0403C78.0403 8.27033 78.1004 8.41595 78.2194 8.53493L78.3043 8.45008ZM78.1603 8.1015C78.1603 7.96433 78.2079 7.84928 78.3043 7.75293L78.2194 7.66808C78.1004 7.78706 78.0403 7.93268 78.0403 8.1015H78.1603ZM78.3043 7.75293C78.4006 7.65658 78.5157 7.609 78.6528 7.609V7.489C78.484 7.489 78.3384 7.5491 78.2194 7.66808L78.3043 7.75293ZM78.6528 7.609C78.79 7.609 78.9051 7.65658 79.0014 7.75293L79.0863 7.66808C78.9673 7.5491 78.8217 7.489 78.6528 7.489V7.609ZM79.0014 7.75293C79.0978 7.84928 79.1453 7.96433 79.1453 8.1015H79.2653C79.2653 7.93268 79.2053 7.78706 79.0863 7.66808L79.0014 7.75293ZM78.9838 9.538V13.703H79.1038V9.538H78.9838ZM79.0438 13.643H78.2618V13.763H79.0438V13.643ZM78.3218 13.703V9.538H78.2018V13.703H78.3218ZM78.2618 9.598H79.0438V9.478H78.2618V9.598ZM80.4415 9.538V9.478H80.3815V9.538H80.4415ZM81.1895 9.538H81.2495V9.478H81.1895V9.538ZM81.1895 10.116H81.1295V10.176H81.1895V10.116ZM81.2235 10.116V10.176H81.258L81.2754 10.1462L81.2235 10.116ZM81.7675 9.606L81.7388 9.55333L81.7383 9.55361L81.7675 9.606ZM83.714 9.844L83.6699 9.88471L83.6708 9.88557L83.714 9.844ZM84.1305 13.703V13.763H84.1905V13.703H84.1305ZM83.3485 13.703H83.2885V13.763H83.3485V13.703ZM83.3485 11.136H83.4085L83.4085 11.1345L83.3485 11.136ZM81.538 10.4985L81.584 10.5371L81.5844 10.5366L81.538 10.4985ZM81.2235 13.703V13.763H81.2835V13.703H81.2235ZM80.4415 13.703H80.3815V13.763H80.4415V13.703ZM80.4415 9.598H81.1895V9.478H80.4415V9.598ZM81.1295 9.538V10.116H81.2495V9.538H81.1295ZM81.1895 10.176H81.2235V10.056H81.1895V10.176ZM81.2754 10.1462C81.388 9.95307 81.5608 9.79012 81.7968 9.65839L81.7383 9.55361C81.487 9.69389 81.297 9.87093 81.1717 10.0858L81.2754 10.1462ZM81.7963 9.65868C82.0374 9.52715 82.2854 9.462 82.541 9.462V9.342C82.264 9.342 81.9963 9.41285 81.7388 9.55333L81.7963 9.65868ZM82.541 9.462C83.0391 9.462 83.4122 9.60549 83.6699 9.8847L83.7581 9.80331C83.4718 9.49318 83.0629 9.342 82.541 9.342V9.462ZM83.6708 9.88557C83.9344 10.16 84.0705 10.5567 84.0705 11.085H84.1905C84.1905 10.5366 84.049 10.106 83.7573 9.80243L83.6708 9.88557ZM84.0705 11.085V13.703H84.1905V11.085H84.0705ZM84.1305 13.643H83.3485V13.763H84.1305V13.643ZM83.4085 13.703V11.136H83.2885V13.703H83.4085ZM83.4085 11.1345C83.3998 10.7854 83.3071 10.5131 83.1209 10.3284C82.9345 10.1435 82.664 10.056 82.32 10.056V10.176C82.6447 10.176 82.88 10.2585 83.0364 10.4136C83.193 10.5689 83.2803 10.8066 83.2885 11.1375L83.4085 11.1345ZM82.32 10.056C81.9892 10.056 81.712 10.1925 81.4917 10.4604L81.5844 10.5366C81.7834 10.2945 82.0275 10.176 82.32 10.176V10.056ZM81.4921 10.4599C81.2726 10.7209 81.1635 11.0352 81.1635 11.3995H81.2835C81.2835 11.0611 81.3841 10.7748 81.5839 10.5371L81.4921 10.4599ZM81.1635 11.3995V13.703H81.2835V11.3995H81.1635ZM81.2235 13.643H80.4415V13.763H81.2235V13.643ZM80.5015 13.703V9.538H80.3815V13.703H80.5015ZM88.2005 12.7085L88.1563 12.6679L88.1554 12.6689L88.2005 12.7085ZM88.2005 10.541L88.1554 10.5806L88.1559 10.5811L88.2005 10.541ZM86.3135 10.541L86.3581 10.5811L86.3581 10.5811L86.3135 10.541ZM86.3135 12.7L86.3581 12.6599L86.3576 12.6594L86.3135 12.7ZM86.577 15.5815L86.5945 15.5241L86.593 15.5237L86.577 15.5815ZM86.016 15.335L85.9831 15.3852L85.9839 15.3857L86.016 15.335ZM85.591 14.9525L85.6376 14.9148L85.6376 14.9148L85.591 14.9525ZM85.319 14.4595L85.296 14.4041L85.2439 14.4256L85.2622 14.479L85.319 14.4595ZM86.0585 14.1535L86.1151 14.1337L86.0942 14.0738L86.0355 14.0981L86.0585 14.1535ZM86.5005 14.74L86.466 14.7891L86.466 14.7891L86.5005 14.74ZM88.226 14.5785L88.2698 14.6194L88.2698 14.6194L88.226 14.5785ZM88.583 13.125H88.643V13.065H88.583V13.125ZM88.549 13.125V13.065H88.5168L88.499 13.0917L88.549 13.125ZM87.9455 13.652L87.9723 13.7057L87.9728 13.7054L87.9455 13.652ZM85.727 13.2015L85.682 13.2412L85.6828 13.2421L85.727 13.2015ZM85.727 10.048L85.6825 10.0077L85.6822 10.008L85.727 10.048ZM87.9455 9.5975L87.9177 9.6507L87.9191 9.65141L87.9455 9.5975ZM88.549 10.116L88.499 10.1493L88.5168 10.176H88.549V10.116ZM88.583 10.116V10.176H88.643V10.116H88.583ZM88.583 9.538V9.478H88.523V9.538H88.583ZM89.331 9.538H89.391V9.478H89.331V9.538ZM88.7615 15.097L88.719 15.0546L88.719 15.0546L88.7615 15.097ZM87.257 13.185C87.6587 13.185 87.9899 13.0394 88.2456 12.7481L88.1554 12.6689C87.9236 12.933 87.6259 13.065 87.257 13.065V13.185ZM88.2446 12.7491C88.5117 12.4583 88.643 12.0802 88.643 11.6205H88.523C88.523 12.0561 88.3992 12.4033 88.1563 12.6679L88.2446 12.7491ZM88.643 11.6205C88.643 11.1716 88.5114 10.7968 88.2451 10.5009L88.1559 10.5811C88.3995 10.8519 88.523 11.1967 88.523 11.6205H88.643ZM88.2455 10.5014C87.9847 10.205 87.6537 10.056 87.257 10.056V10.176C87.6195 10.176 87.9176 10.3103 88.1554 10.5806L88.2455 10.5014ZM87.257 10.056C86.8656 10.056 86.535 10.2052 86.2689 10.5009L86.3581 10.5811C86.6019 10.3102 86.9003 10.176 87.257 10.176V10.056ZM86.2689 10.5009C86.0025 10.7968 85.871 11.1716 85.871 11.6205H85.991C85.991 11.1967 86.1144 10.8519 86.3581 10.5811L86.2689 10.5009ZM85.871 11.6205C85.871 12.0748 86.0024 12.45 86.2693 12.7406L86.3576 12.6594C86.1145 12.3947 85.991 12.0502 85.991 11.6205H85.871ZM86.2689 12.7401C86.535 13.0358 86.8656 13.185 87.257 13.185V13.065C86.9003 13.065 86.6019 12.9308 86.3581 12.6599L86.2689 12.7401ZM87.2315 15.615C87.0045 15.615 86.7923 15.5846 86.5945 15.5241L86.5594 15.6389C86.7696 15.7031 86.9937 15.735 87.2315 15.735V15.615ZM86.593 15.5237C86.3944 15.4685 86.2128 15.3887 86.0481 15.2843L85.9839 15.3857C86.1591 15.4967 86.3515 15.5812 86.5609 15.6393L86.593 15.5237ZM86.0488 15.2848C85.8895 15.1804 85.7526 15.0571 85.6376 14.9148L85.5443 14.9902C85.6673 15.1426 85.8137 15.2742 85.9831 15.3852L86.0488 15.2848ZM85.6376 14.9148C85.5231 14.773 85.4358 14.6148 85.3757 14.44L85.2622 14.479C85.3268 14.6669 85.4208 14.8374 85.5443 14.9902L85.6376 14.9148ZM85.3419 14.5149L86.0814 14.2089L86.0355 14.0981L85.296 14.4041L85.3419 14.5149ZM86.0018 14.1733C86.0909 14.4287 86.2459 14.6345 86.466 14.7891L86.535 14.6909C86.3356 14.5509 86.196 14.3656 86.1151 14.1337L86.0018 14.1733ZM86.466 14.7891C86.6866 14.9441 86.9425 15.021 87.2315 15.021V14.901C86.9651 14.901 86.7337 14.8305 86.535 14.6909L86.466 14.7891ZM87.2315 15.021C87.6692 15.021 88.0181 14.8892 88.2698 14.6194L88.1821 14.5376C87.9579 14.7778 87.6437 14.901 87.2315 14.901V15.021ZM88.2698 14.6194C88.5209 14.3505 88.643 13.9829 88.643 13.5245H88.523C88.523 13.9614 88.407 14.2966 88.1821 14.5376L88.2698 14.6194ZM88.643 13.5245V13.125H88.523V13.5245H88.643ZM88.583 13.065H88.549V13.185H88.583V13.065ZM88.499 13.0917C88.3578 13.3035 88.1647 13.4725 87.9182 13.5986L87.9728 13.7054C88.2362 13.5708 88.4454 13.3885 88.5989 13.1583L88.499 13.0917ZM87.9186 13.5983C87.6781 13.7186 87.4154 13.779 87.1295 13.779V13.899C87.4329 13.899 87.7142 13.8347 87.9723 13.7057L87.9186 13.5983ZM87.1295 13.779C86.6034 13.779 86.1515 13.5744 85.7711 13.1609L85.6828 13.2421C86.0844 13.6786 86.5675 13.899 87.1295 13.899V13.779ZM85.7719 13.1618C85.3969 12.7371 85.209 12.2245 85.209 11.6205H85.089C85.089 12.2518 85.2863 12.7932 85.682 13.2412L85.7719 13.1618ZM85.209 11.6205C85.209 11.0165 85.3969 10.5069 85.7717 10.088L85.6822 10.008C85.2864 10.4505 85.089 10.9892 85.089 11.6205H85.209ZM85.7714 10.0883C86.1519 9.66922 86.6037 9.462 87.1295 9.462V9.342C86.5673 9.342 86.084 9.56545 85.6825 10.0077L85.7714 10.0883ZM87.1295 9.462C87.4149 9.462 87.6773 9.52504 87.9177 9.65068L87.9733 9.54433C87.7149 9.4093 87.4333 9.342 87.1295 9.342V9.462ZM87.9191 9.65141C88.1652 9.77174 88.358 9.93773 88.499 10.1493L88.5989 10.0827C88.4452 9.85227 88.2357 9.6726 87.9718 9.5436L87.9191 9.65141ZM88.549 10.176H88.583V10.056H88.549V10.176ZM88.643 10.116V9.538H88.523V10.116H88.643ZM88.583 9.598H89.331V9.478H88.583V9.598ZM89.271 9.538V13.5245H89.391V9.538H89.271ZM89.271 13.5245C89.271 14.1814 89.0848 14.6888 88.719 15.0546L88.8039 15.1394C89.1974 14.7459 89.391 14.205 89.391 13.5245H89.271ZM88.719 15.0546C88.3468 15.4268 87.853 15.615 87.2315 15.615V15.735C87.8792 15.735 88.4054 15.5379 88.8039 15.1394L88.719 15.0546ZM98.8111 9.538L98.8682 9.55642L98.8935 9.478H98.8111V9.538ZM97.4681 13.703V13.763H97.5118L97.5252 13.7214L97.4681 13.703ZM96.6691 13.703L96.612 13.7215L96.6255 13.763H96.6691V13.703ZM95.6321 10.507L95.6892 10.4885L95.6319 10.3119L95.575 10.4886L95.6321 10.507ZM94.6036 13.703V13.763H94.6473L94.6607 13.7214L94.6036 13.703ZM93.8131 13.703L93.756 13.7214L93.7694 13.763H93.8131V13.703ZM92.4701 9.538V9.478H92.3877L92.413 9.55642L92.4701 9.538ZM93.2861 9.538L93.3436 9.52105L93.331 9.478H93.2861V9.538ZM94.2126 12.683L94.155 12.7L94.1677 12.743H94.2126V12.683ZM94.2211 12.683V12.743H94.2646L94.2781 12.7017L94.2211 12.683ZM95.2496 9.538V9.478H95.2061L95.1926 9.51935L95.2496 9.538ZM96.0571 9.538L96.1141 9.51935L96.1006 9.478H96.0571V9.538ZM97.0856 12.683L97.0286 12.7017L97.0421 12.743H97.0856V12.683ZM97.0941 12.683V12.743H97.1391L97.1517 12.6998L97.0941 12.683ZM98.0121 9.538V9.478H97.9671L97.9545 9.52119L98.0121 9.538ZM98.754 9.51959L97.411 13.6846L97.5252 13.7214L98.8682 9.55642L98.754 9.51959ZM97.4681 13.643H96.6691V13.763H97.4681V13.643ZM96.7262 13.6845L95.6892 10.4885L95.575 10.5255L96.612 13.7215L96.7262 13.6845ZM95.575 10.4886L94.5465 13.6846L94.6607 13.7214L95.6892 10.5254L95.575 10.4886ZM94.6036 13.643H93.8131V13.763H94.6036V13.643ZM93.8702 13.6846L92.5272 9.51959L92.413 9.55642L93.756 13.7214L93.8702 13.6846ZM92.4701 9.598H93.2861V9.478H92.4701V9.598ZM93.2285 9.55496L94.155 12.7L94.2701 12.666L93.3436 9.52105L93.2285 9.55496ZM94.2126 12.743H94.2211V12.623H94.2126V12.743ZM94.2781 12.7017L95.3066 9.55665L95.1926 9.51935L94.1641 12.6644L94.2781 12.7017ZM95.2496 9.598H96.0571V9.478H95.2496V9.598ZM96.0001 9.55665L97.0286 12.7017L97.1426 12.6644L96.1141 9.51935L96.0001 9.55665ZM97.0856 12.743H97.0941V12.623H97.0856V12.743ZM97.1517 12.6998L98.0697 9.55481L97.9545 9.52119L97.0365 12.6662L97.1517 12.6998ZM98.0121 9.598H98.8111V9.478H98.0121V9.598ZM100.55 8.4925L100.508 8.45008L100.508 8.45008L100.55 8.4925ZM99.7683 8.4925L99.7259 8.53493L99.7683 8.4925ZM99.7683 7.7105L99.7259 7.66808L99.7683 7.7105ZM100.55 7.7105L100.508 7.75293L100.508 7.75293L100.55 7.7105ZM100.55 9.538H100.61V9.478H100.55V9.538ZM100.55 13.703V13.763H100.61V13.703H100.55ZM99.7683 13.703H99.7083V13.763H99.7683V13.703ZM99.7683 9.538V9.478H99.7083V9.538H99.7683ZM100.652 8.1015C100.652 8.23868 100.604 8.35372 100.508 8.45008L100.593 8.53493C100.712 8.41595 100.772 8.27033 100.772 8.1015H100.652ZM100.508 8.45008C100.412 8.54643 100.296 8.594 100.159 8.594V8.714C100.328 8.714 100.474 8.65391 100.593 8.53493L100.508 8.45008ZM100.159 8.594C100.022 8.594 99.9071 8.54643 99.8107 8.45008L99.7259 8.53493C99.8449 8.65391 99.9905 8.714 100.159 8.714V8.594ZM99.8107 8.45008C99.7144 8.35372 99.6668 8.23868 99.6668 8.1015H99.5468C99.5468 8.27033 99.6069 8.41595 99.7259 8.53493L99.8107 8.45008ZM99.6668 8.1015C99.6668 7.96433 99.7144 7.84928 99.8107 7.75293L99.7259 7.66808C99.6069 7.78706 99.5468 7.93268 99.5468 8.1015H99.6668ZM99.8107 7.75293C99.9071 7.65658 100.022 7.609 100.159 7.609V7.489C99.9905 7.489 99.8449 7.5491 99.7259 7.66808L99.8107 7.75293ZM100.159 7.609C100.296 7.609 100.412 7.65658 100.508 7.75293L100.593 7.66808C100.474 7.5491 100.328 7.489 100.159 7.489V7.609ZM100.508 7.75293C100.604 7.84928 100.652 7.96433 100.652 8.1015H100.772C100.772 7.93268 100.712 7.78706 100.593 7.66808L100.508 7.75293ZM100.49 9.538V13.703H100.61V9.538H100.49ZM100.55 13.643H99.7683V13.763H100.55V13.643ZM99.8283 13.703V9.538H99.7083V13.703H99.8283ZM99.7683 9.598H100.55V9.478H99.7683V9.598ZM102.705 13.4565L102.664 13.5L102.665 13.5005L102.705 13.4565ZM102.365 12.581H102.305L102.305 12.5819L102.365 12.581ZM102.365 10.252H102.425V10.192H102.365V10.252ZM101.634 10.252H101.574V10.312H101.634V10.252ZM101.634 9.538V9.478H101.574V9.538H101.634ZM102.365 9.538V9.598H102.425V9.538H102.365ZM102.365 8.263V8.203H102.305V8.263H102.365ZM103.147 8.263H103.207V8.203H103.147V8.263ZM103.147 9.538H103.087V9.598H103.147V9.538ZM104.167 9.538H104.227V9.478H104.167V9.538ZM104.167 10.252V10.312H104.227V10.252H104.167ZM103.147 10.252V10.192H103.087V10.252H103.147ZM103.309 12.8955L103.268 12.9391L103.269 12.9402L103.309 12.8955ZM103.853 13.023L103.865 13.082L103.869 13.0809L103.853 13.023ZM104.023 12.9635L104.08 12.9435L104.058 12.8823L103.999 12.9087L104.023 12.9635ZM104.269 13.6605L104.29 13.7169L104.346 13.6967L104.326 13.6405L104.269 13.6605ZM103.555 13.711C103.229 13.711 102.961 13.6108 102.746 13.4125L102.665 13.5005C102.904 13.7215 103.202 13.831 103.555 13.831V13.711ZM102.747 13.413C102.54 13.2169 102.431 12.9419 102.425 12.5801L102.305 12.5819C102.311 12.9681 102.429 13.2768 102.664 13.5L102.747 13.413ZM102.425 12.581V10.252H102.305V12.581H102.425ZM102.365 10.192H101.634V10.312H102.365V10.192ZM101.694 10.252V9.538H101.574V10.252H101.694ZM101.634 9.598H102.365V9.478H101.634V9.598ZM102.425 9.538V8.263H102.305V9.538H102.425ZM102.365 8.323H103.147V8.203H102.365V8.323ZM103.087 8.263V9.538H103.207V8.263H103.087ZM103.147 9.598H104.167V9.478H103.147V9.598ZM104.107 9.538V10.252H104.227V9.538H104.107ZM104.167 10.192H103.147V10.312H104.167V10.192ZM103.087 10.252V12.326H103.207V10.252H103.087ZM103.087 12.326C103.087 12.6072 103.141 12.8191 103.268 12.9391L103.35 12.8519C103.261 12.7679 103.207 12.6002 103.207 12.326H103.087ZM103.269 12.9402C103.387 13.0457 103.523 13.1 103.674 13.1V12.98C103.554 12.98 103.446 12.9379 103.349 12.8508L103.269 12.9402ZM103.674 13.1C103.74 13.1 103.804 13.094 103.865 13.0818L103.841 12.9642C103.789 12.9747 103.733 12.98 103.674 12.98V13.1ZM103.869 13.0809C103.934 13.0632 103.993 13.0424 104.047 13.0183L103.999 12.9087C103.951 12.9299 103.897 12.9488 103.837 12.9651L103.869 13.0809ZM103.966 12.9835L104.213 13.6805L104.326 13.6405L104.08 12.9435L103.966 12.9835ZM104.249 13.6041C104.053 13.6749 103.822 13.711 103.555 13.711V13.831C103.833 13.831 104.078 13.7935 104.29 13.7169L104.249 13.6041ZM105.333 7.617V7.557H105.273V7.617H105.333ZM106.115 7.617H106.175V7.557H106.115V7.617ZM106.115 9.538L106.175 9.54153V9.538H106.115ZM106.081 10.116L106.021 10.1125L106.017 10.176H106.081V10.116ZM106.115 10.116V10.176H106.149L106.167 10.1462L106.115 10.116ZM106.659 9.606L106.63 9.55333L106.63 9.55361L106.659 9.606ZM108.605 9.844L108.561 9.88471L108.562 9.88557L108.605 9.844ZM109.022 13.703V13.763H109.082V13.703H109.022ZM108.24 13.703H108.18V13.763H108.24V13.703ZM106.438 10.5155L106.392 10.4772L106.392 10.4773L106.438 10.5155ZM106.115 13.703V13.763H106.175V13.703H106.115ZM105.333 13.703H105.273V13.763H105.333V13.703ZM105.333 7.677H106.115V7.557H105.333V7.677ZM106.055 7.617V9.538H106.175V7.617H106.055ZM106.055 9.53448L106.021 10.1125L106.141 10.1195L106.175 9.54153L106.055 9.53448ZM106.081 10.176H106.115V10.056H106.081V10.176ZM106.167 10.1462C106.279 9.95307 106.452 9.79012 106.688 9.65839L106.63 9.55361C106.378 9.69389 106.188 9.87093 106.063 10.0858L106.167 10.1462ZM106.688 9.65868C106.929 9.52715 107.177 9.462 107.432 9.462V9.342C107.155 9.342 106.888 9.41285 106.63 9.55333L106.688 9.65868ZM107.432 9.462C107.93 9.462 108.304 9.60549 108.561 9.8847L108.649 9.80331C108.363 9.49318 107.954 9.342 107.432 9.342V9.462ZM108.562 9.88557C108.826 10.16 108.962 10.5567 108.962 11.085H109.082C109.082 10.5366 108.94 10.106 108.649 9.80243L108.562 9.88557ZM108.962 11.085V13.703H109.082V11.085H108.962ZM109.022 13.643H108.24V13.763H109.022V13.643ZM108.3 13.703V11.238H108.18V13.703H108.3ZM108.3 11.238C108.3 10.8564 108.215 10.559 108.036 10.3567C107.856 10.153 107.588 10.056 107.245 10.056V10.176C107.566 10.176 107.795 10.266 107.946 10.4363C108.099 10.608 108.18 10.8716 108.18 11.238H108.3ZM107.245 10.056C106.908 10.056 106.623 10.1985 106.392 10.4772L106.484 10.5538C106.695 10.2998 106.948 10.176 107.245 10.176V10.056ZM106.392 10.4773C106.167 10.7492 106.055 11.0688 106.055 11.4335H106.175C106.175 11.0955 106.278 10.8032 106.484 10.5537L106.392 10.4773ZM106.055 11.4335V13.703H106.175V11.4335H106.055ZM106.115 13.643H105.333V13.763H106.115V13.643ZM105.393 13.703V7.617H105.273V13.703H105.393Z" fill="white"/>
<rect x="0.5" y="1.20349" width="134" height="39" rx="6.5" stroke="white"/>
</svg>
