<svg width="119" height="41" viewBox="0 0 119 41" fill="none" xmlns="http://www.w3.org/2000/svg">
<path d="M61.2041 25.5023H63.2607C69.6416 25.5023 72.8584 22.3031 72.8584 17.3988C72.8584 12.9515 69.8877 9.98083 63.6475 9.98083H58.5674C57.1436 9.98083 56.335 10.807 56.335 12.2133V32.1644C56.335 33.5355 57.0908 34.3265 58.7607 34.3265C60.4307 34.3265 61.2041 33.5355 61.2041 32.1644V25.5023ZM61.2041 21.8109V13.725H63.4014C66.4951 13.725 67.9014 15.1312 67.9014 17.6976C67.9014 20.2465 66.3193 21.8109 63.5244 21.8109H61.2041Z" fill="white"/>
<path d="M76.8595 32.2172C76.8595 33.5531 77.6329 34.3265 79.2501 34.3265C80.8673 34.3265 81.6407 33.5531 81.6407 32.2172V18.3129C81.6407 16.9769 80.8673 16.2035 79.2501 16.2035C77.6329 16.2035 76.8595 16.9769 76.8595 18.3129V32.2172ZM76.3849 11.0531C76.3849 12.5472 77.5626 13.725 79.215 13.725C80.9376 13.725 82.1154 12.5472 82.1154 10.9828C82.1154 9.48865 80.9376 8.31091 79.2853 8.31091C77.545 8.31091 76.3849 9.48865 76.3849 11.0531Z" fill="white"/>
<path d="M87.1887 32.2172C87.1887 33.5531 87.9622 34.3265 89.5793 34.3265C91.1965 34.3265 91.97 33.5531 91.97 32.2172V23.2523C92.6204 22.0043 93.675 20.7386 94.8176 20.7386C95.3625 20.7386 95.6438 21.0023 96.1536 21.0023C97.0852 21.0023 97.8762 19.9828 97.8762 18.2074C97.8762 16.6957 97.1204 15.975 95.7844 15.975C93.9387 15.975 92.427 17.3109 91.5481 19.1566H91.4954L91.2668 17.8734C91.0735 16.7836 90.4407 16.1508 89.175 16.1508C87.8918 16.1508 87.1887 16.8539 87.1887 18.1371V32.2172Z" fill="white"/>
<path d="M99.7152 25.5726C99.7152 30.9867 103.301 34.5551 108.68 34.5551C114.481 34.5551 118.067 30.9691 118.067 24.9574C118.067 19.5433 114.498 15.975 109.119 15.975C103.319 15.975 99.7152 19.5609 99.7152 25.5726ZM104.584 25.2211C104.584 21.5121 106.448 19.6488 108.873 19.6488C111.264 19.6488 113.215 21.6 113.215 25.2914C113.215 29.0179 111.352 30.8812 108.944 30.8812C106.518 30.8812 104.584 28.9476 104.584 25.2211Z" fill="white"/>
<g clip-path="url(#clip0_2157_11591)">
<path d="M17.0404 24.1917L5.29807 35.9382C2.18432 32.8232 0.435059 28.5986 0.435059 24.1936C0.435059 19.7886 2.18432 15.564 5.29807 12.4491V12.4491L17.0404 0.703491C20.1538 3.81843 21.9029 8.04282 21.9029 12.4476C21.9029 16.8523 20.1538 21.0767 17.0404 24.1917V24.1917Z" fill="url(#paint0_linear_2157_11591)"/>
<path d="M33.6263 24.0932C33.626 27.3782 32.652 30.5894 30.8273 33.3207C29.0026 36.052 26.4093 38.1807 23.3752 39.4378C20.341 40.6949 17.0024 41.0238 13.7814 40.383C10.5604 39.7422 7.60164 38.1605 5.2793 35.8378L17.0206 24.0932L28.7629 12.3476C30.3049 13.8901 31.528 15.7213 32.3625 17.7366C33.1969 19.7519 33.6264 21.9119 33.6263 24.0932Z" fill="url(#paint1_linear_2157_11591)"/>
</g>
<defs>
<linearGradient id="paint0_linear_2157_11591" x1="20.2621" y1="2.56544" x2="2.0668" y2="34.0719" gradientUnits="userSpaceOnUse">
<stop stop-color="#8136F8"/>
<stop offset="1" stop-color="#7B57F7"/>
</linearGradient>
<linearGradient id="paint1_linear_2157_11591" x1="5.2793" y1="26.526" x2="33.6263" y2="26.526" gradientUnits="userSpaceOnUse">
<stop stop-color="#8136F8" stop-opacity="0.4"/>
<stop offset="1" stop-color="#7B57F7"/>
</linearGradient>
<clipPath id="clip0_2157_11591">
<rect width="33.1915" height="40" fill="white" transform="translate(0.43457 0.703491)"/>
</clipPath>
</defs>
</svg>
