<svg width="135" height="40" viewBox="0 0 135 40" fill="none" xmlns="http://www.w3.org/2000/svg">
<path d="M36.1125 14.3994H38.113C38.5391 14.3994 38.9044 14.3316 39.2087 14.196C39.5131 14.0605 39.7469 13.8668 39.9102 13.615C40.0762 13.3604 40.1592 13.0588 40.1592 12.7102V12.7019C40.1592 12.4418 40.1025 12.2094 39.989 12.0046C39.8756 11.7971 39.7179 11.6283 39.5159 11.4983C39.3139 11.3682 39.0773 11.2894 38.8062 11.2617V11.1912C39.0054 11.158 39.1838 11.0791 39.3416 10.9546C39.4993 10.8301 39.6252 10.6779 39.7192 10.498C39.8133 10.3154 39.8604 10.119 39.8604 9.90869V9.90039C39.8604 9.59603 39.7884 9.33317 39.6445 9.11182C39.5007 8.8877 39.2931 8.71476 39.022 8.59302C38.7536 8.47127 38.4326 8.4104 38.0591 8.4104H36.1125V9.16992H37.8391C38.185 9.16992 38.4534 9.24878 38.6443 9.40649C38.8352 9.56144 38.9307 9.78003 38.9307 10.0623V10.0706C38.9307 10.3611 38.8255 10.5824 38.6152 10.7346C38.4049 10.884 38.0937 10.9587 37.6814 10.9587H36.1125V11.6685H37.8682C38.1615 11.6685 38.4063 11.7058 38.6028 11.7805C38.802 11.8525 38.9514 11.9604 39.051 12.1042C39.1506 12.2481 39.2004 12.428 39.2004 12.6438V12.6521C39.2004 12.9731 39.0925 13.2179 38.8767 13.3867C38.6609 13.5555 38.3427 13.6399 37.9221 13.6399H36.1125V14.3994ZM35.6477 14.3994H36.5774V8.4104H35.6477V14.3994ZM43.5192 14.4866C43.8097 14.4866 44.0656 14.4492 44.287 14.3745C44.5111 14.2998 44.702 14.2016 44.8597 14.0798C45.0202 13.9581 45.1489 13.8239 45.2457 13.6772C45.3426 13.5278 45.4104 13.3784 45.4491 13.229L45.4574 13.1917H44.5858L44.5692 13.2249C44.536 13.3023 44.4738 13.3812 44.3824 13.4614C44.2939 13.5417 44.1791 13.6095 44.038 13.6648C43.8996 13.7174 43.7336 13.7437 43.5399 13.7437C43.2881 13.7437 43.0695 13.6883 42.8842 13.5776C42.7015 13.467 42.5604 13.3065 42.4608 13.0962C42.3612 12.8859 42.3114 12.6327 42.3114 12.3367V11.9756C42.3114 11.6657 42.3612 11.4042 42.4608 11.1912C42.5632 10.9781 42.7015 10.8176 42.8758 10.7097C43.0529 10.599 43.2535 10.5437 43.4777 10.5437C43.7018 10.5437 43.8996 10.5963 44.0712 10.7014C44.2427 10.8066 44.3769 10.9657 44.4738 11.1787C44.5734 11.389 44.6232 11.6546 44.6232 11.9756V12.3367L45.0548 11.739H41.859V12.3823H45.503V12.0669C45.503 11.6131 45.4214 11.2174 45.2582 10.8799C45.0949 10.5396 44.8611 10.2753 44.5568 10.0872C44.2552 9.89901 43.8941 9.80493 43.4735 9.80493C43.0557 9.80493 42.6905 9.90316 42.3778 10.0996C42.0679 10.2961 41.8272 10.57 41.6556 10.9214C41.4869 11.2728 41.4025 11.6837 41.4025 12.1541V12.1582C41.4025 12.6341 41.4869 13.0464 41.6556 13.395C41.8272 13.7437 42.0707 14.0134 42.3861 14.2043C42.7015 14.3925 43.0792 14.4866 43.5192 14.4866ZM48.6555 14.4285C48.744 14.4285 48.8298 14.4229 48.9128 14.4119C48.9958 14.4036 49.0733 14.3939 49.1453 14.3828V13.6606C49.0816 13.6662 49.0249 13.6703 48.9751 13.6731C48.9281 13.6759 48.8713 13.6772 48.8049 13.6772C48.5808 13.6772 48.4203 13.6247 48.3235 13.5195C48.2266 13.4116 48.1782 13.2359 48.1782 12.9924V10.6018H49.1453V9.89209H48.1782V8.75488H47.2568V9.89209H46.5513V10.6018H47.2568V13.2124C47.2568 13.644 47.3661 13.9553 47.5847 14.1462C47.8061 14.3344 48.163 14.4285 48.6555 14.4285ZM51.8163 14.4741C52.0155 14.4741 52.1995 14.4465 52.3683 14.3911C52.5371 14.3358 52.6879 14.2555 52.8207 14.1504C52.9535 14.0425 53.0642 13.9124 53.1527 13.7603H53.2191V14.3994H54.1156V11.3157C54.1156 11.0002 54.0464 10.7305 53.9081 10.5063C53.7725 10.2795 53.5719 10.1065 53.3063 9.98755C53.0434 9.8658 52.7224 9.80493 52.3434 9.80493C52.003 9.80493 51.7001 9.85612 51.4344 9.9585C51.1716 10.0609 50.9585 10.2048 50.7953 10.3901C50.6348 10.5728 50.5366 10.7886 50.5006 11.0376L50.4964 11.0667H51.3639L51.3722 11.0542C51.4247 10.8937 51.5299 10.7692 51.6876 10.6807C51.8481 10.5921 52.0542 10.5479 52.306 10.5479C52.6076 10.5479 52.8345 10.6143 52.9867 10.7471C53.1416 10.8771 53.2191 11.0667 53.2191 11.3157V12.7351C53.2191 12.9288 53.1693 13.1031 53.0697 13.2581C52.9701 13.4102 52.8317 13.532 52.6546 13.6233C52.4803 13.7118 52.2811 13.7561 52.057 13.7561C51.8163 13.7561 51.6171 13.698 51.4593 13.5818C51.3016 13.4628 51.2228 13.3009 51.2228 13.0962V13.0879C51.2228 12.8859 51.2961 12.7296 51.4427 12.6189C51.5894 12.5055 51.8177 12.439 52.1275 12.4197L53.6673 12.3201V11.6851L52.003 11.7847C51.4663 11.8179 51.0512 11.9493 50.7579 12.179C50.4674 12.4058 50.3221 12.7213 50.3221 13.1252V13.1335C50.3221 13.4047 50.3872 13.6413 50.5172 13.8433C50.6472 14.0452 50.8243 14.2016 51.0484 14.3123C51.2753 14.4202 51.5313 14.4741 51.8163 14.4741ZM60.0843 14.3994H61.014V9.21558H62.8983V8.4104H58.2V9.21558H60.0843V14.3994ZM65.3908 14.4866C65.6814 14.4866 65.9373 14.4492 66.1587 14.3745C66.3828 14.2998 66.5737 14.2016 66.7314 14.0798C66.8919 13.9581 67.0206 13.8239 67.1174 13.6772C67.2142 13.5278 67.282 13.3784 67.3208 13.229L67.3291 13.1917H66.4575L66.4409 13.2249C66.4077 13.3023 66.3454 13.3812 66.2541 13.4614C66.1656 13.5417 66.0508 13.6095 65.9096 13.6648C65.7713 13.7174 65.6053 13.7437 65.4116 13.7437C65.1598 13.7437 64.9412 13.6883 64.7558 13.5776C64.5732 13.467 64.4321 13.3065 64.3325 13.0962C64.2329 12.8859 64.1831 12.6327 64.1831 12.3367V11.9756C64.1831 11.6657 64.2329 11.4042 64.3325 11.1912C64.4349 10.9781 64.5732 10.8176 64.7475 10.7097C64.9246 10.599 65.1252 10.5437 65.3493 10.5437C65.5735 10.5437 65.7713 10.5963 65.9428 10.7014C66.1144 10.8066 66.2486 10.9657 66.3454 11.1787C66.445 11.389 66.4948 11.6546 66.4948 11.9756V12.3367L66.9265 11.739H63.7307V12.3823H67.3747V12.0669C67.3747 11.6131 67.2931 11.2174 67.1299 10.8799C66.9666 10.5396 66.7328 10.2753 66.4284 10.0872C66.1268 9.89901 65.7658 9.80493 65.3452 9.80493C64.9274 9.80493 64.5621 9.90316 64.2495 10.0996C63.9396 10.2961 63.6989 10.57 63.5273 10.9214C63.3585 11.2728 63.2741 11.6837 63.2741 12.1541V12.1582C63.2741 12.6341 63.3585 13.0464 63.5273 13.395C63.6989 13.7437 63.9424 14.0134 64.2578 14.2043C64.5732 14.3925 64.9509 14.4866 65.3908 14.4866ZM70.4649 14.4866C70.8246 14.4866 71.1442 14.4285 71.4237 14.3123C71.7059 14.1933 71.9286 14.0286 72.0919 13.8184C72.2551 13.6053 72.3368 13.3604 72.3368 13.0837V13.0754C72.3368 12.7489 72.2302 12.4889 72.0172 12.2952C71.8069 12.1015 71.4859 11.9535 71.0543 11.8511L70.3363 11.6892C70.0845 11.6283 69.9032 11.5522 69.7926 11.4609C69.6819 11.3696 69.6266 11.2534 69.6266 11.1123V11.104C69.6266 10.9823 69.6625 10.8771 69.7345 10.7886C69.8092 10.6973 69.9102 10.6267 70.0374 10.5769C70.1647 10.5243 70.31 10.498 70.4732 10.498C70.7278 10.498 70.9325 10.5506 71.0875 10.6558C71.2452 10.7609 71.3448 10.8923 71.3863 11.05V11.0583H72.2496V11.0542C72.2219 10.8079 72.1334 10.5921 71.984 10.4067C71.8346 10.2186 71.6312 10.0719 71.3739 9.9668C71.1193 9.85889 70.8205 9.80493 70.4774 9.80493C70.1371 9.80493 69.8341 9.86304 69.5684 9.97925C69.3056 10.0927 69.0995 10.2518 68.95 10.4565C68.8006 10.6585 68.7259 10.891 68.7259 11.1538V11.158C68.7259 11.4872 68.8269 11.7528 69.0289 11.9548C69.2336 12.1541 69.5477 12.3021 69.971 12.3989L70.6932 12.5649C70.9533 12.6258 71.1401 12.7047 71.2535 12.8015C71.3669 12.8984 71.4237 13.0173 71.4237 13.1584V13.1667C71.4237 13.2885 71.3836 13.3964 71.3033 13.4905C71.2231 13.5846 71.1124 13.6579 70.9713 13.7104C70.8329 13.763 70.6711 13.7893 70.4857 13.7893C70.2173 13.7893 70.0015 13.7367 69.8382 13.6316C69.675 13.5264 69.5643 13.3895 69.5062 13.2207V13.2124H68.6014V13.2207C68.6291 13.4725 68.7218 13.6938 68.8795 13.8848C69.0372 14.0729 69.2503 14.2209 69.5186 14.3289C69.787 14.434 70.1025 14.4866 70.4649 14.4866ZM75.456 14.4285C75.5446 14.4285 75.6303 14.4229 75.7133 14.4119C75.7963 14.4036 75.8738 14.3939 75.9458 14.3828V13.6606C75.8821 13.6662 75.8254 13.6703 75.7756 13.6731C75.7286 13.6759 75.6718 13.6772 75.6054 13.6772C75.3813 13.6772 75.2208 13.6247 75.124 13.5195C75.0271 13.4116 74.9787 13.2359 74.9787 12.9924V10.6018H75.9458V9.89209H74.9787V8.75488H74.0573V9.89209H73.3518V10.6018H74.0573V13.2124C74.0573 13.644 74.1666 13.9553 74.3852 14.1462C74.6066 14.3344 74.9635 14.4285 75.456 14.4285ZM77.3924 14.3994H78.2972V9.89209H77.3924V14.3994ZM77.849 9.08691C78.0039 9.08691 78.1367 9.03158 78.2474 8.9209C78.3581 8.81022 78.4134 8.67741 78.4134 8.52246C78.4134 8.36751 78.3581 8.23608 78.2474 8.12817C78.1367 8.0175 78.0039 7.96216 77.849 7.96216C77.694 7.96216 77.5612 8.0175 77.4505 8.12817C77.3398 8.23608 77.2845 8.36751 77.2845 8.52246C77.2845 8.67741 77.3398 8.81022 77.4505 8.9209C77.5612 9.03158 77.694 9.08691 77.849 9.08691ZM79.9846 14.3994H80.8852V11.7556C80.8852 11.5121 80.9281 11.3032 81.0139 11.1289C81.1024 10.9518 81.2269 10.8162 81.3874 10.7222C81.5479 10.6253 81.7374 10.5769 81.956 10.5769C82.288 10.5769 82.5315 10.6696 82.6865 10.855C82.8442 11.0376 82.923 11.3171 82.923 11.6934V14.3994H83.8278V11.4817C83.8278 10.9449 83.6936 10.5312 83.4252 10.2407C83.1569 9.9502 82.7695 9.80493 82.2631 9.80493C81.9339 9.80493 81.6613 9.87272 81.4455 10.0083C81.2297 10.1439 81.0664 10.332 80.9558 10.5728H80.8852V9.89209H79.9846V14.3994ZM87.3663 15.989C87.7952 15.989 88.1659 15.9198 88.4786 15.7815C88.7912 15.6431 89.032 15.4481 89.2008 15.1963C89.3723 14.9445 89.4581 14.6484 89.4581 14.3081V9.89209H88.5574V10.6309H88.5035C88.4149 10.4621 88.3029 10.3168 88.1673 10.1951C88.0317 10.0733 87.8754 9.97925 87.6983 9.91284C87.524 9.84644 87.3317 9.81323 87.1214 9.81323C86.7313 9.81323 86.3951 9.90731 86.1129 10.0955C85.8306 10.2808 85.6134 10.5396 85.4613 10.8716C85.3091 11.2008 85.233 11.5799 85.233 12.0088V12.0171C85.233 12.4404 85.3077 12.8153 85.4571 13.1418C85.6093 13.4656 85.8251 13.7201 86.1046 13.9055C86.3868 14.0881 86.7188 14.1794 87.1007 14.1794C87.3082 14.1794 87.5005 14.1504 87.6776 14.0923C87.8546 14.0342 88.0124 13.9484 88.1507 13.835C88.289 13.7188 88.4025 13.5804 88.491 13.4199H88.5616V14.304C88.5616 14.6083 88.4564 14.8449 88.2462 15.0137C88.0386 15.1825 87.7495 15.2668 87.3787 15.2668C87.0771 15.2668 86.8364 15.217 86.6566 15.1174C86.4767 15.0178 86.3674 14.8905 86.3287 14.7356L86.3245 14.7273H85.4114L85.4073 14.7356C85.4433 14.9846 85.5429 15.2032 85.7061 15.3914C85.8694 15.5795 86.0907 15.7262 86.3702 15.8313C86.6524 15.9364 86.9844 15.989 87.3663 15.989ZM87.3538 13.4324C87.0993 13.4324 86.8821 13.3729 86.7022 13.2539C86.5251 13.1322 86.3896 12.9648 86.2955 12.7517C86.2014 12.5387 86.1544 12.2924 86.1544 12.0129V12.0046C86.1544 11.7252 86.2014 11.4789 86.2955 11.2659C86.3896 11.05 86.5251 10.8813 86.7022 10.7595C86.8821 10.6378 87.0993 10.5769 87.3538 10.5769C87.6084 10.5769 87.827 10.6378 88.0096 10.7595C88.1922 10.8813 88.3319 11.05 88.4288 11.2659C88.5284 11.4817 88.5782 11.7279 88.5782 12.0046V12.0129C88.5782 12.2924 88.5284 12.5387 88.4288 12.7517C88.3319 12.9648 88.1922 13.1322 88.0096 13.2539C87.827 13.3729 87.6084 13.4324 87.3538 13.4324ZM94.6963 14.3994H95.6219L96.5474 11.0376H96.618L97.5518 14.3994H98.4857L99.7225 9.89209H98.8301L98.0208 13.3701H97.9544L97.0247 9.89209H96.1656L95.24 13.3701H95.1695L94.3643 9.89209H93.4554L94.6963 14.3994ZM101.04 14.3994H101.945V9.89209H101.04V14.3994ZM101.497 9.08691C101.652 9.08691 101.785 9.03158 101.895 8.9209C102.006 8.81022 102.061 8.67741 102.061 8.52246C102.061 8.36751 102.006 8.23608 101.895 8.12817C101.785 8.0175 101.652 7.96216 101.497 7.96216C101.342 7.96216 101.209 8.0175 101.099 8.12817C100.988 8.23608 100.933 8.36751 100.933 8.52246C100.933 8.67741 100.988 8.81022 101.099 8.9209C101.209 9.03158 101.342 9.08691 101.497 9.08691ZM105.334 14.4285C105.423 14.4285 105.509 14.4229 105.592 14.4119C105.675 14.4036 105.752 14.3939 105.824 14.3828V13.6606C105.76 13.6662 105.704 13.6703 105.654 13.6731C105.607 13.6759 105.55 13.6772 105.484 13.6772C105.26 13.6772 105.099 13.6247 105.002 13.5195C104.905 13.4116 104.857 13.2359 104.857 12.9924V10.6018H105.824V9.89209H104.857V8.75488H103.936V9.89209H103.23V10.6018H103.936V13.2124C103.936 13.644 104.045 13.9553 104.263 14.1462C104.485 14.3344 104.842 14.4285 105.334 14.4285ZM107.3 14.3994H108.2V11.7556C108.2 11.5121 108.243 11.3032 108.329 11.1289C108.418 10.9518 108.542 10.8162 108.703 10.7222C108.863 10.6253 109.053 10.5769 109.271 10.5769C109.603 10.5769 109.847 10.6696 110.002 10.855C110.159 11.0376 110.238 11.3171 110.238 11.6934V14.3994H111.143V11.4817C111.143 11.1248 111.082 10.8218 110.96 10.5728C110.839 10.321 110.662 10.13 110.429 10C110.197 9.86995 109.913 9.80493 109.578 9.80493C109.249 9.80493 108.976 9.87272 108.761 10.0083C108.545 10.1439 108.382 10.332 108.271 10.5728H108.2V8.12402H107.3V14.3994Z" fill="white"/>
<path d="M38.8445 30.4165H40.7671V19.7439H44.6379V18.0862H34.9736V19.7439H38.8445V30.4165ZM49.3417 30.5959C49.9341 30.5959 50.4611 30.519 50.9225 30.3652C51.3839 30.2114 51.777 30.0092 52.1017 29.7585C52.4264 29.5079 52.6884 29.2316 52.8878 28.9297C53.0929 28.6221 53.2325 28.3145 53.3065 28.0068L53.3236 27.9299H51.5292L51.5035 27.9983C51.4295 28.1578 51.3013 28.3201 51.119 28.4854C50.9367 28.6506 50.7003 28.7901 50.4098 28.9041C50.1193 29.0123 49.7775 29.0664 49.3844 29.0664C48.866 29.0664 48.416 28.9525 48.0343 28.7246C47.6583 28.4967 47.3678 28.1663 47.1627 27.7334C46.9576 27.3005 46.8551 26.7792 46.8551 26.1697V25.4348C46.8551 24.7968 46.9576 24.2585 47.1627 23.8198C47.3735 23.3812 47.6583 23.0508 48.0172 22.8286C48.3818 22.6007 48.7948 22.4868 49.2562 22.4868C49.7176 22.4868 50.125 22.5951 50.4781 22.8115C50.8313 23.028 51.1076 23.3527 51.307 23.7856C51.5064 24.2186 51.6061 24.7683 51.6061 25.4348V26.1697L52.5033 24.9392H45.9237V26.2637H53.4261V25.6143C53.4261 24.6857 53.2581 23.8739 52.922 23.179C52.5859 22.4783 52.1045 21.9342 51.4779 21.5469C50.8513 21.1595 50.1079 20.9658 49.2477 20.9658C48.3818 20.9658 47.6298 21.1681 46.9918 21.5725C46.3538 21.9713 45.8582 22.5324 45.505 23.2559C45.1575 23.9793 44.9838 24.8253 44.9838 25.7937V25.8022C44.9838 26.7821 45.1575 27.6309 45.505 28.3486C45.8582 29.0664 46.3595 29.6218 47.0089 30.0149C47.6583 30.4023 48.4359 30.5959 49.3417 30.5959ZM59.3689 30.5959C60.1038 30.5959 60.7589 30.4763 61.3342 30.2371C61.9153 29.9921 62.3739 29.6532 62.71 29.2202C63.0461 28.7873 63.2141 28.2831 63.2141 27.7078V27.6907C63.2141 27.0185 62.9976 26.483 62.5647 26.0842C62.1317 25.6855 61.4681 25.3835 60.5737 25.1785L59.104 24.8367C58.5856 24.717 58.2125 24.5632 57.9846 24.3752C57.7567 24.1873 57.6428 23.948 57.6428 23.6575V23.6404C57.6428 23.3897 57.7169 23.1733 57.865 22.991C58.0188 22.803 58.2267 22.6577 58.4888 22.5552C58.7508 22.4469 59.0499 22.3928 59.386 22.3928C59.9101 22.3928 60.3316 22.5011 60.6506 22.7175C60.9696 22.934 61.1719 23.2074 61.2573 23.5378V23.5464H63.0347V23.5378C62.9777 23.0308 62.7954 22.5865 62.4878 22.2048C62.1859 21.8175 61.77 21.5155 61.2402 21.2991C60.7161 21.0769 60.1009 20.9658 59.3945 20.9658C58.6938 20.9658 58.0701 21.0854 57.5232 21.3247C56.982 21.5583 56.5576 21.8858 56.25 22.3074C55.9424 22.7232 55.7886 23.2017 55.7886 23.7429V23.7515C55.7886 24.4237 55.9965 24.9677 56.4123 25.3835C56.8339 25.7994 57.4805 26.107 58.352 26.3064L59.8303 26.6396C60.3658 26.765 60.7503 26.9273 60.9839 27.1267C61.2174 27.3261 61.3342 27.571 61.3342 27.8616V27.8787C61.3342 28.135 61.2516 28.36 61.0864 28.5537C60.9212 28.7417 60.6933 28.8898 60.4028 28.998C60.118 29.1063 59.7876 29.1604 59.4116 29.1604C58.859 29.1604 58.4147 29.0522 58.0786 28.8357C57.7425 28.6192 57.5146 28.3344 57.395 27.9812V27.9727H55.5322V27.9897C55.5892 28.5081 55.78 28.9639 56.1047 29.3569C56.4294 29.7443 56.8681 30.0491 57.4206 30.2712C57.9732 30.4877 58.6226 30.5959 59.3689 30.5959ZM69.2167 30.4763C69.399 30.4763 69.5755 30.4649 69.7464 30.4421C69.9173 30.425 70.0768 30.4051 70.225 30.3823V28.9041C70.0939 28.9154 69.98 28.924 69.8832 28.9297C69.7863 28.9354 69.6667 28.9382 69.5243 28.9382C69.0685 28.9382 68.741 28.83 68.5416 28.6135C68.3422 28.3914 68.2425 28.0296 68.2425 27.5283V22.6064H70.225V21.1367H68.2425V18.804H66.337V21.1367H64.8929V22.6064H66.337V27.9727C66.337 28.8613 66.562 29.5022 67.0121 29.8953C67.4678 30.2826 68.2027 30.4763 69.2167 30.4763ZM72.9634 30.4165H74.8774V25.2554H80.1753V23.6404H74.8774V19.7439H80.6623V18.0862H72.9634V30.4165ZM83.3836 30.4165H85.2379V17.5137H83.3836V30.4165ZM88.3864 30.4165H90.2492V21.1367H88.3864V30.4165ZM89.3264 19.4875C89.6454 19.4875 89.9188 19.3765 90.1467 19.1543C90.3746 18.9264 90.4885 18.653 90.4885 18.334C90.4885 18.015 90.3746 17.7444 90.1467 17.5222C89.9188 17.2944 89.6454 17.1804 89.3264 17.1804C89.0074 17.1804 88.7339 17.2944 88.5061 17.5222C88.2782 17.7444 88.1643 18.015 88.1643 18.334C88.1643 18.653 88.2782 18.9264 88.5061 19.1543C88.7339 19.3765 89.0074 19.4875 89.3264 19.4875ZM97.2259 33.6807C98.1032 33.6807 98.8637 33.5382 99.5074 33.2534C100.157 32.9743 100.655 32.5755 101.003 32.0571C101.35 31.5387 101.524 30.9292 101.524 30.2285V21.1367H99.6698V22.6663H99.5672C99.3849 22.3188 99.1542 22.0197 98.8751 21.769C98.596 21.5184 98.2741 21.3247 97.9095 21.188C97.5506 21.0513 97.1547 20.9829 96.7218 20.9829C95.9185 20.9829 95.2264 21.1766 94.6454 21.564C94.0643 21.9456 93.6171 22.4754 93.3038 23.1533C92.9905 23.8312 92.8338 24.6145 92.8338 25.5032V25.5203C92.8338 26.3918 92.9905 27.1637 93.3038 27.8359C93.6171 28.5024 94.0614 29.0265 94.6368 29.4082C95.2122 29.7842 95.8929 29.9722 96.679 29.9722C97.1063 29.9722 97.5022 29.9124 97.8668 29.7927C98.2314 29.6731 98.5561 29.4965 98.8409 29.2629C99.1257 29.0237 99.3593 28.7389 99.5416 28.4084H99.6869V30.2114C99.6869 30.8438 99.4704 31.3308 99.0374 31.6726C98.6102 32.0201 98.0149 32.1938 97.2516 32.1938C96.6306 32.1938 96.135 32.0913 95.7647 31.8862C95.3945 31.6868 95.1694 31.4277 95.0897 31.1086L95.0811 31.0916H93.2013L93.1927 31.1086C93.2668 31.6213 93.4718 32.0714 93.8079 32.4587C94.1497 32.8461 94.6083 33.1452 95.1837 33.356C95.759 33.5724 96.4398 33.6807 97.2259 33.6807ZM97.2003 28.4426C96.6762 28.4426 96.229 28.3201 95.8587 28.0752C95.4941 27.8245 95.215 27.4799 95.0213 27.0413C94.8276 26.5969 94.7308 26.0871 94.7308 25.5117V25.4946C94.7308 24.9193 94.8276 24.4123 95.0213 23.9736C95.215 23.5293 95.4941 23.1818 95.8587 22.9312C96.229 22.6805 96.6762 22.5552 97.2003 22.5552C97.7244 22.5552 98.1716 22.6805 98.5418 22.9312C98.9178 23.1818 99.2055 23.5293 99.4049 23.9736C99.61 24.4123 99.7125 24.9193 99.7125 25.4946V25.5117C99.7125 26.0928 99.61 26.6026 99.4049 27.0413C99.2055 27.4799 98.9178 27.8245 98.5418 28.0752C98.1716 28.3201 97.7244 28.4426 97.2003 28.4426ZM104.638 30.4165H106.493V24.9734C106.493 24.4778 106.581 24.0505 106.758 23.6917C106.94 23.3271 107.193 23.0479 107.518 22.8542C107.848 22.6549 108.241 22.5552 108.697 22.5552C109.375 22.5552 109.876 22.746 110.201 23.1277C110.526 23.5094 110.688 24.0847 110.688 24.8538V30.4165H112.542V24.418C112.542 23.6831 112.417 23.0593 112.166 22.5466C111.922 22.0282 111.56 21.6352 111.081 21.3674C110.603 21.0997 110.019 20.9658 109.33 20.9658C108.652 20.9658 108.091 21.1054 107.646 21.3845C107.202 21.6637 106.866 22.051 106.638 22.5466H106.493V17.5137H104.638V30.4165ZM118.989 30.4763C119.172 30.4763 119.348 30.4649 119.519 30.4421C119.69 30.425 119.85 30.4051 119.998 30.3823V28.9041C119.867 28.9154 119.753 28.924 119.656 28.9297C119.559 28.9354 119.439 28.9382 119.297 28.9382C118.841 28.9382 118.514 28.83 118.314 28.6135C118.115 28.3914 118.015 28.0296 118.015 27.5283V22.6064H119.998V21.1367H118.015V18.804H116.11V21.1367H114.666V22.6064H116.11V27.9727C116.11 28.8613 116.335 29.5022 116.785 29.8953C117.24 30.2826 117.975 30.4763 118.989 30.4763Z" fill="white"/>
<path d="M24.769 20.3008C24.7907 18.6198 25.6934 17.0292 27.1256 16.1488C26.2221 14.8584 24.7088 14.0403 23.1344 13.9911C21.4552 13.8148 19.8272 14.9959 18.9715 14.9959C18.0992 14.9959 16.7817 14.0086 15.363 14.0378C13.5137 14.0975 11.7898 15.1489 10.8901 16.7656C8.95607 20.1141 10.3987 25.0351 12.2513 27.7417C13.1782 29.0671 14.2615 30.5475 15.6789 30.495C17.066 30.4375 17.584 29.6105 19.2583 29.6105C20.9171 29.6105 21.4031 30.495 22.8493 30.4616C24.3377 30.4375 25.2754 29.1304 26.1698 27.7925C26.8358 26.8481 27.3483 25.8044 27.6882 24.7C25.9391 23.9602 24.771 22.2 24.769 20.3008Z" fill="white"/>
<path d="M22.0373 12.2111C22.8489 11.2369 23.2487 9.98469 23.1518 8.72046C21.912 8.85068 20.7668 9.44324 19.9443 10.3801C19.14 11.2954 18.7214 12.5255 18.8006 13.7415C20.0408 13.7542 21.2601 13.1777 22.0373 12.2111Z" fill="white"/>
<rect x="0.5" y="0.5" width="134" height="39" rx="6.5" stroke="white"/>
</svg>
